<svg width="24" height="24" viewBox="0 0 24 24" fill="none" xmlns="http://www.w3.org/2000/svg">
<circle cx="12" cy="12" r="12" fill="#CCEFDC"/>
<path d="M6.16712 12.5833L16.4256 12.5833L13.338 15.6709C13.2823 15.7247 13.2379 15.7891 13.2073 15.8603C13.1767 15.9314 13.1606 16.008 13.16 16.0854C13.1593 16.1629 13.1741 16.2397 13.2034 16.3114C13.2327 16.3831 13.276 16.4482 13.3308 16.503C13.3856 16.5577 13.4507 16.6011 13.5224 16.6304C13.5941 16.6597 13.6709 16.6745 13.7484 16.6738C13.8258 16.6731 13.9024 16.657 13.9735 16.6265C14.0447 16.5959 14.1091 16.5515 14.1629 16.4957L18.2462 12.4124C18.3556 12.303 18.417 12.1547 18.417 12C18.417 11.8453 18.3556 11.697 18.2462 11.5876L14.1629 7.50424C14.0528 7.39798 13.9055 7.33919 13.7525 7.34052C13.5996 7.34184 13.4533 7.40319 13.3451 7.51135C13.237 7.6195 13.1756 7.76581 13.1743 7.91876C13.173 8.07171 13.2318 8.21906 13.338 8.32908L16.4256 11.4167L6.16712 11.4167C6.01241 11.4167 5.86403 11.4781 5.75464 11.5875C5.64524 11.6969 5.58378 11.8453 5.58378 12C5.58378 12.1547 5.64524 12.3031 5.75464 12.4125C5.86403 12.5219 6.01241 12.5833 6.16712 12.5833Z" fill="#00B14F"/>
</svg>
