<svg width="20" height="20" viewBox="0 0 20 20" fill="none" xmlns="http://www.w3.org/2000/svg">
<path d="M13.4917 1.66663H6.50841C3.47508 1.66663 1.66675 3.47496 1.66675 6.50829V13.4916C1.66675 16.525 3.47508 18.3333 6.50841 18.3333H13.4917C16.5251 18.3333 18.3334 16.525 18.3334 13.4916V6.50829C18.3334 3.47496 16.5251 1.66663 13.4917 1.66663ZM8.30842 12.4166L6.43341 14.2916C6.30841 14.4166 6.15008 14.475 5.99175 14.475C5.83342 14.475 5.66675 14.4166 5.55008 14.2916L4.92508 13.6666C4.67508 13.425 4.67508 13.025 4.92508 12.7833C5.16675 12.5416 5.55841 12.5416 5.80841 12.7833L5.99175 12.9666L7.42508 11.5333C7.66675 11.2916 8.05842 11.2916 8.30842 11.5333C8.55008 11.775 8.55008 12.175 8.30842 12.4166ZM8.30842 6.58329L6.43341 8.45829C6.30841 8.58329 6.15008 8.64163 5.99175 8.64163C5.83342 8.64163 5.66675 8.58329 5.55008 8.45829L4.92508 7.83329C4.67508 7.59163 4.67508 7.19163 4.92508 6.94996C5.16675 6.70829 5.55841 6.70829 5.80841 6.94996L5.99175 7.13329L7.42508 5.69996C7.66675 5.45829 8.05842 5.45829 8.30842 5.69996C8.55008 5.94163 8.55008 6.34163 8.30842 6.58329ZM14.6334 13.85H10.2584C9.91675 13.85 9.63342 13.5666 9.63342 13.225C9.63342 12.8833 9.91675 12.6 10.2584 12.6H14.6334C14.9834 12.6 15.2584 12.8833 15.2584 13.225C15.2584 13.5666 14.9834 13.85 14.6334 13.85ZM14.6334 8.01663H10.2584C9.91675 8.01663 9.63342 7.73329 9.63342 7.39163C9.63342 7.04996 9.91675 6.76663 10.2584 6.76663H14.6334C14.9834 6.76663 15.2584 7.04996 15.2584 7.39163C15.2584 7.73329 14.9834 8.01663 14.6334 8.01663Z" fill="#00B14F"/>
</svg>
