<svg width="56" height="56" viewBox="0 0 56 56" fill="none" xmlns="http://www.w3.org/2000/svg">
<rect width="56" height="56" rx="28" fill="#CAF0DB"/>
<g clip-path="url(#clip0_1169_1789)">
<path d="M16.7345 40.533C13.2278 40.533 10.0916 38.3076 8.97897 34.9821C8.29356 32.9333 7.92218 30.7406 7.92218 28.4611C7.92218 23.4984 9.68224 18.9468 12.6123 15.3964C12.7368 15.2455 13.1902 15.258 13.3189 15.1108C13.883 14.4656 14.4868 13.8559 15.1264 13.2857C15.2231 13.1994 14.9939 12.9526 15.0923 12.8682C18.6849 9.78513 23.3554 7.9222 28.4608 7.92212C39.837 7.92195 49.0517 17.1808 48.9999 28.5569C48.9827 32.313 47.9573 35.8308 46.1804 38.8538C45.5711 39.8903 44.4648 40.533 43.2625 40.533H16.7345Z" fill="#63BCFA"/>
<path d="M46.7365 29.9141H36.6766C35.9821 29.9141 35.4191 29.3511 35.4191 28.6566C35.4191 27.9622 35.9821 27.3992 36.6766 27.3992H46.7365C47.431 27.3992 47.994 27.9622 47.994 28.6566C47.994 29.3512 47.431 29.9141 46.7365 29.9141ZM44.6407 33.4072C44.6407 32.7127 44.0777 32.1497 43.3832 32.1497H33.3233C32.6289 32.1497 32.0658 32.7127 32.0658 33.4072C32.0658 34.1016 32.6289 34.6646 33.3233 34.6646H43.3832C44.0777 34.6646 44.6407 34.1016 44.6407 33.4072ZM43.3832 38.8563C42.6685 38.8563 42.0931 39.4524 42.1271 40.1745C42.159 40.8509 42.7416 41.3712 43.4187 41.3712H43.9578C44.2639 41.3712 44.5528 41.2293 44.7396 40.9869C45.2621 40.309 45.7431 39.5975 46.1788 38.8563H43.3832ZM38.7724 11.6108C38.7724 12.3052 38.2094 12.8682 37.5149 12.8682H27.4551C26.7606 12.8682 26.1976 12.3052 26.1976 11.6108C26.1976 10.9163 26.7606 10.3533 27.4551 10.3533H37.5149C38.2094 10.3533 38.7724 10.9163 38.7724 11.6108ZM16.976 14.1257C16.976 14.8202 16.413 15.3832 15.7185 15.3832H12.6231C13.373 14.4761 14.1993 13.6345 15.0922 12.8682H15.7185C16.413 12.8682 16.976 13.4313 16.976 14.1257Z" fill="#91CEFB"/>
<path d="M10.373 22.4254C9.9782 21.8541 10.1212 21.0708 10.6925 20.676L20.4081 13.9606C20.9794 13.5657 21.7627 13.7087 22.1575 14.28C22.5524 14.8513 22.4094 15.6345 21.8381 16.0294L12.1225 22.7448C11.5511 23.1397 10.7679 22.9967 10.373 22.4254Z" fill="#BBE0FB"/>
<path d="M12.8248 20.7308C12.4299 20.1595 12.5729 19.3762 13.1442 18.9814L20.4081 13.9606C20.9794 13.5657 21.7626 13.7087 22.1575 14.28C22.5523 14.8513 22.4093 15.6345 21.8381 16.0294L14.5742 21.0502C14.0029 21.4451 13.2196 21.3021 12.8248 20.7308Z" fill="#E3F0FB"/>
<path d="M46.1916 25.9461C46.1916 27.9586 45.6272 29.8571 44.6022 31.2922C43.5992 32.6964 42.2676 33.5097 40.8264 33.6069V40.533C40.8264 40.8803 40.5449 41.1617 40.1976 41.1617C39.8504 41.1617 39.5689 40.8803 39.5689 40.533V31.1006C36.0442 31.0334 33.1976 28.1453 33.1976 24.6048C33.1976 24.2575 33.4791 23.9761 33.8264 23.9761C34.1736 23.9761 34.4551 24.2575 34.4551 24.6048C34.4551 27.4518 36.7377 29.7758 39.5689 29.8428V26.2815C39.5689 25.9341 39.8504 25.6527 40.1976 25.6527C40.5449 25.6527 40.8264 25.9341 40.8264 26.2815V32.3452C43.1169 32.1245 44.9342 29.3387 44.9342 25.9461C44.9342 25.5988 45.2157 25.3174 45.5629 25.3174C45.9101 25.3174 46.1916 25.5988 46.1916 25.9461Z" fill="#72443B"/>
<path d="M42.2389 15.1431C43.272 16.4864 43.8862 18.1685 43.8862 19.994C43.8862 24.3924 40.3206 27.5389 35.9221 27.5389C31.5237 27.5389 27.9581 24.3924 27.9581 19.994C27.9581 17.322 29.274 14.9574 31.293 13.5127C31.2866 13.4338 31.2834 13.354 31.2834 13.2734C31.2834 11.6452 32.6033 10.3253 34.2315 10.3253C34.4362 10.3253 34.6361 10.3462 34.8291 10.3859C35.3656 8.43404 37.1531 7 39.2754 7C41.8219 7 43.8862 9.06429 43.8862 11.6108C43.8862 13.0289 43.2461 14.2974 42.2389 15.1431Z" fill="#017B4E"/>
<path d="M41.2839 7.45932C39.346 7.84679 37.9331 9.39937 37.6353 11.2468C37.6025 11.4502 37.4383 11.6108 37.2335 11.633C37.1535 11.6417 37.0732 11.6537 36.9927 11.6691C35.3938 11.9761 34.3464 13.5213 34.6534 15.1203C34.6535 15.121 34.6537 15.1218 34.6538 15.1226C34.6816 15.2671 34.6461 15.4172 34.5478 15.5268C32.9451 17.3159 32.167 19.8064 32.6548 22.3473C33.132 24.8326 34.7166 26.8248 36.7991 27.9103C36.4688 27.9464 36.1323 27.9625 35.7911 27.957C31.4794 27.8876 27.9766 24.3414 27.958 20.0291C27.9465 17.3427 29.265 14.9637 31.293 13.5128C31.2866 13.4339 31.2833 13.3541 31.2833 13.2735C31.2833 11.6453 32.6033 10.3254 34.2314 10.3254C34.4362 10.3254 34.636 10.3463 34.8291 10.386C35.3656 8.43404 37.1531 7 39.2755 7C39.9954 7 40.6768 7.16507 41.2839 7.45932Z" fill="#026841"/>
<path d="M48.9162 21.6707C48.9162 25.7334 45.5162 29.002 41.4063 28.7863C37.7014 28.5919 34.7422 25.5295 34.6662 21.8202C34.6007 18.625 36.6389 15.8963 39.4902 14.9244C40.0897 14.72 40.5476 14.2431 40.7684 13.6495C41.3277 12.1451 42.8193 11.0942 44.5411 11.1988C46.4348 11.3139 47.9651 12.8519 48.0717 14.7462C48.1025 15.2949 48.016 15.8199 47.8349 16.2985C47.6059 16.9039 47.659 17.5765 47.9804 18.1384C48.5759 19.1795 48.9162 20.3853 48.9162 21.6707Z" fill="#09A66D"/>
<path d="M23.8504 14.4766L37.852 24.0231V43.1164H14.0711C12.3315 41.4081 10.8948 39.3925 9.84869 37.1575V24.0231L23.8504 14.4766Z" fill="#F7E6B0"/>
<path d="M37.8521 24.0231V27.7956L23.8504 18.249L12.0299 26.3084V39.6947H11.2637C10.7348 38.8867 10.2613 38.0391 9.84869 37.1575V24.0231L12.0299 22.536L23.8504 14.4766L37.8521 24.0231Z" fill="#FFDF8E"/>
<path d="M40.4822 25.8164C40.2388 26.1734 39.8439 26.3656 39.4421 26.3656C39.1982 26.3656 38.9516 26.2947 38.7348 26.147L23.8504 15.9985L8.96604 26.147C8.39229 26.5382 7.60997 26.3902 7.21864 25.8165C6.82739 25.2426 6.97544 24.4603 7.54919 24.0691L23.142 13.4376C23.5694 13.1463 24.1315 13.1463 24.5588 13.4376L40.1516 24.0691C40.7254 24.4602 40.8735 25.2425 40.4822 25.8164Z" fill="#E43950"/>
<path d="M40.4822 25.8163C40.2388 26.1734 39.8439 26.3655 39.4421 26.3655C39.1982 26.3656 38.9516 26.2947 38.7348 26.147L23.8504 15.9985L14.3338 22.4871C13.9065 22.7784 13.3443 22.7784 12.917 22.4871C12.1849 21.9879 12.1849 20.9083 12.917 20.4091L23.142 13.4375C23.5694 13.1462 24.1315 13.1462 24.5588 13.4375L40.1516 24.0689C40.7254 24.4602 40.8735 25.2425 40.4822 25.8163Z" fill="#EA5569"/>
<path d="M33.4947 38.2275H27.9581C27.4951 38.2275 27.1198 37.8522 27.1198 37.3892V25.6527C27.1198 25.1896 27.4951 24.8143 27.9581 24.8143H33.4947C33.9577 24.8143 34.333 25.1896 34.333 25.6527V37.3892C34.333 37.8522 33.9577 38.2275 33.4947 38.2275Z" fill="#DCA050"/>
<path d="M28.7964 38.2275H27.9581C27.4951 38.2275 27.1198 37.8522 27.1198 37.3892V25.6527C27.1198 25.1896 27.4951 24.8143 27.9581 24.8143H28.7964V38.2275Z" fill="#CE9047"/>
<path d="M23.0121 31.3114H14.1222C13.6592 31.3114 13.2839 30.9361 13.2839 30.4731V26.2814C13.2839 25.8184 13.6592 25.4431 14.1222 25.4431H23.0121C23.4751 25.4431 23.8504 25.8184 23.8504 26.2814V30.4731C23.8504 30.9361 23.475 31.3114 23.0121 31.3114Z" fill="#4F66CF"/>
<path d="M23.448 31.3114H23.23C22.767 31.3114 22.3917 30.9361 22.3917 30.4731V26.2814C22.3917 25.8184 22.767 25.4431 23.23 25.4431H23.448C23.911 25.4431 24.2863 25.8184 24.2863 26.2814V30.4731C24.2863 30.9361 23.911 31.3114 23.448 31.3114ZM21.0224 30.4731V26.2814C21.0224 25.8184 20.6471 25.4431 20.184 25.4431H19.6186C19.1556 25.4431 18.7803 25.8184 18.7803 26.2814V30.4731C18.7803 30.9361 19.1556 31.3114 19.6186 31.3114H20.184C20.6471 31.3114 21.0224 30.9361 21.0224 30.4731Z" fill="#6C7FD7"/>
<path d="M37.8521 39.6947H23.6006V36.3414C23.6006 35.8784 23.976 35.5031 24.439 35.5031H37.8521V39.6947Z" fill="#FBC56D"/>
<path d="M26.2814 36.3414V39.6947H23.6006V36.3414C23.6006 35.8784 23.976 35.5031 24.439 35.5031H27.1198C26.6568 35.5031 26.2814 35.8784 26.2814 36.3414Z" fill="#EBAE56"/>
<path d="M28.7964 29.2155V31.7305C28.7964 31.962 28.6087 32.1497 28.3772 32.1497C28.1458 32.1497 27.9581 31.962 27.9581 31.7305V29.2155C27.9581 28.9841 28.1458 28.7964 28.3772 28.7964C28.6087 28.7964 28.7964 28.9841 28.7964 29.2155Z" fill="#72443B"/>
<path d="M23.2253 24.8143H14.3354C13.5265 24.8143 12.8683 25.4725 12.8683 26.2814V30.473C12.8683 31.2819 13.5265 31.9401 14.3354 31.9401H23.2253C24.0342 31.9401 24.6923 31.2819 24.6923 30.473V26.2814C24.6923 25.4725 24.0342 24.8143 23.2253 24.8143ZM20.0378 26.0718V30.6826H17.5228V26.0718H20.0378ZM14.1258 30.473V26.2814C14.1258 26.1658 14.2198 26.0718 14.3354 26.0718H16.2653V30.6826H14.3354C14.2198 30.6826 14.1258 30.5886 14.1258 30.473ZM23.4348 30.473C23.4348 30.5886 23.3408 30.6826 23.2253 30.6826H21.2953V26.0718H23.2253C23.3408 26.0718 23.4348 26.1658 23.4348 26.2814V30.473Z" fill="#925B50"/>
<path d="M8.87585 34.665C15.013 34.6388 20.6984 36.0437 25.3409 38.449C24.2445 39.8759 22.9649 41.1547 21.5372 42.2503C18.649 44.4665 14.4966 43.9538 12.2573 41.0833C10.7751 39.1833 9.6197 37.0157 8.87585 34.665C8.87585 34.6651 8.87585 34.6651 8.87585 34.665Z" fill="#026841"/>
<path d="M25.3409 38.4491C24.7691 39.1933 24.1475 39.8971 23.4809 40.5558C21.0093 42.2307 17.6275 42.0738 15.3292 39.982C13.6822 38.4829 12.2719 36.7116 11.1751 34.7227C16.4305 35.0092 21.2839 36.3472 25.3409 38.4491Z" fill="#017B4E"/>
<path d="M44.7574 40.964C41.0028 45.8505 35.0997 49 28.4611 49C21.8225 49 15.9195 45.8505 12.1649 40.964C16.7649 38.5809 22.3885 37.1797 28.4611 37.1797C34.5337 37.1797 40.1573 38.5809 44.7574 40.964Z" fill="#6EB368"/>
<path d="M32.5548 37.395C32.5098 37.3998 32.4649 37.4047 32.42 37.4096C30.2064 37.6526 28.7105 38.926 27.9757 40.5329H30.473C30.936 40.5329 31.3114 40.9083 31.3114 41.3713C31.3114 41.8343 30.936 42.2096 30.473 42.2096H27.4983C27.1622 44.8006 28.5234 47.618 31.7225 48.4054C31.9978 48.4732 32.2753 48.5354 32.5548 48.5919C37.4968 47.5923 41.7955 44.8185 44.7572 40.9639C41.2105 39.1265 37.0552 37.8729 32.5548 37.395ZM34.6646 45.5629H32.988C32.525 45.5629 32.1497 45.1876 32.1497 44.7246C32.1497 44.2616 32.525 43.8862 32.988 43.8862H34.6646C35.1277 43.8862 35.503 44.2616 35.503 44.7246C35.503 45.1876 35.1277 45.5629 34.6646 45.5629ZM37.1796 41.3713H35.503C35.04 41.3713 34.6646 40.996 34.6646 40.5329C34.6646 40.0699 35.04 39.6946 35.503 39.6946H37.1796C37.6426 39.6946 38.0179 40.0699 38.0179 40.5329C38.0179 40.996 37.6426 41.3713 37.1796 41.3713Z" fill="#85BE7F"/>
</g>
<defs>
<clipPath id="clip0_1169_1789">
<rect width="42" height="42" fill="white" transform="translate(7 7)"/>
</clipPath>
</defs>
</svg>
