<svg width="13" height="13" viewBox="0 0 13 13" fill="none" xmlns="http://www.w3.org/2000/svg">
<path d="M12.2419 6.12143C12.2419 9.50191 9.50142 12.2424 6.12094 12.2424C2.74046 12.2424 0 9.50191 0 6.12143C0 2.74084 2.74046 0.000488281 6.12094 0.000488281C9.50142 0.000488281 12.2419 2.74084 12.2419 6.12143Z" fill="black" fill-opacity="0.6"/>
<path d="M12.2429 6.1218C12.2429 9.50174 9.50211 12.2425 6.12109 12.2425V0C9.50211 0 12.2429 2.74078 12.2429 6.1218Z" fill="#666666"/>
<path d="M6.12125 1.75708C5.8947 1.75708 5.71109 1.9408 5.71109 2.16724V5.71103H3.48535C3.2588 5.71103 3.0752 5.89464 3.0752 6.12119C3.0752 6.34773 3.2588 6.53134 3.48535 6.53134H6.12125C6.34769 6.53134 6.5314 6.34773 6.5314 6.12119V2.16724C6.5314 1.9408 6.34769 1.75708 6.12125 1.75708Z" fill="#EFF6FE"/>
<path d="M6.12184 1.75708C6.12152 1.75708 6.12131 1.75719 6.12109 1.75719V6.53134H6.12184C6.34828 6.53134 6.532 6.34763 6.532 6.12119V2.16724C6.532 1.9408 6.34828 1.75708 6.12184 1.75708Z" fill="#D9E4EF"/>
</svg>
