<svg width="20" height="20" viewBox="0 0 20 20" fill="none" xmlns="http://www.w3.org/2000/svg">
<path fill-rule="evenodd" clip-rule="evenodd" d="M4.41073 4.4107C4.73617 4.08527 5.26381 4.08527 5.58925 4.4107L15.5892 14.4107C15.9147 14.7361 15.9147 15.2638 15.5892 15.5892C15.2638 15.9146 14.7362 15.9146 14.4107 15.5892L4.41073 5.58922C4.0853 5.26378 4.0853 4.73614 4.41073 4.4107Z" fill="#101010"/>
<path fill-rule="evenodd" clip-rule="evenodd" d="M15.5892 4.4107C15.2638 4.08527 14.7362 4.08527 14.4107 4.4107L4.41073 14.4107C4.0853 14.7361 4.0853 15.2638 4.41073 15.5892C4.73617 15.9146 5.26381 15.9146 5.58925 15.5892L15.5892 5.58922C15.9147 5.26378 15.9147 4.73614 15.5892 4.4107Z" fill="#101010"/>
</svg>
