<svg width="16" height="16" viewBox="0 0 16 16" fill="none" xmlns="http://www.w3.org/2000/svg">
<path d="M-6.10352e-05 1.9834V16.0006H12.8268V14.8577C12.8268 14.8241 12.8268 14.7568 12.8268 14.7232H2.36279C1.92397 14.7232 1.58642 14.3535 1.58642 13.9165V1.9834H-6.10352e-05Z" fill="#00B14F"/>
<path d="M3.1731 0.0336138V1.14289V1.1765V1.21011V13.1096H16V0H3.1731V0.0336138ZM13.0296 10.7566H6.17729C5.73848 10.7566 5.36717 10.3868 5.36717 9.94983C5.36717 9.51284 5.73848 9.14308 6.17729 9.14308H13.0296C13.4684 9.14308 13.8397 9.51284 13.8397 9.94983C13.8397 10.3868 13.4684 10.7566 13.0296 10.7566ZM13.0296 7.36153H6.17729C5.73848 7.36153 5.36717 6.99177 5.36717 6.55478C5.36717 6.1178 5.73848 5.74804 6.17729 5.74804H13.0296C13.4684 5.74804 13.8397 6.1178 13.8397 6.55478C13.8397 6.99177 13.4684 7.36153 13.0296 7.36153ZM13.0296 4.0001H6.17729C5.73848 4.0001 5.36717 3.63034 5.36717 3.19336C5.36717 2.75637 5.73848 2.38661 6.17729 2.38661H13.0296C13.4684 2.38661 13.8397 2.75637 13.8397 3.19336C13.8397 3.63034 13.4684 4.0001 13.0296 4.0001Z" fill="#00B14F"/>
</svg>
