<svg width="81" height="81" viewBox="0 0 81 81" fill="none" xmlns="http://www.w3.org/2000/svg">
<path d="M40.25 80.25C62.3414 80.25 80.25 62.3414 80.25 40.25C80.25 18.1586 62.3414 0.25 40.25 0.25C18.1586 0.25 0.25 18.1586 0.25 40.25C0.25 62.3414 18.1586 80.25 40.25 80.25Z" fill="#E6ECFF"/>
<path d="M72.3494 64.0877C68.6188 59.0932 63.7747 55.0377 58.2021 52.2434C52.6294 49.4491 46.4818 47.9932 40.2479 47.9912C34.0139 47.9893 27.8654 49.4414 22.291 52.2321C16.7166 55.0229 11.87 59.0754 8.13632 64.0676C11.851 69.0851 16.6897 73.1624 22.2645 75.9725C27.8392 78.7826 33.9948 80.2473 40.2378 80.2493C46.4807 80.2513 52.6373 78.7904 58.2138 75.9837C63.7902 73.1771 68.6315 69.1029 72.3494 64.0877Z" fill="#4294FF"/>
<path d="M40.25 42.83C48.8015 42.83 55.7339 35.8977 55.7339 27.3462C55.7339 18.7947 48.8015 11.8623 40.25 11.8623C31.6985 11.8623 24.7661 18.7947 24.7661 27.3462C24.7661 35.8977 31.6985 42.83 40.25 42.83Z" fill="#4294FF"/>
</svg>
