<svg width="16" height="16" viewBox="0 0 16 16" fill="none" xmlns="http://www.w3.org/2000/svg">
<path d="M14.5008 7.25H14.5001C14.4016 7.25008 14.3041 7.26956 14.2131 7.30733C14.1221 7.3451 14.0395 7.40042 13.9699 7.47012C13.9003 7.53983 13.8451 7.62256 13.8075 7.71359C13.7699 7.80462 13.7506 7.90216 13.7507 8.00066C13.7498 9.05213 13.4606 10.0832 12.9147 10.9819C12.3688 11.8805 11.587 12.6123 10.6543 13.0978C9.72156 13.5832 8.67364 13.8037 7.62439 13.7353C6.57515 13.6669 5.56473 13.3121 4.70298 12.7097C2.1061 10.8913 1.47269 7.29916 3.29107 4.70225C5.10944 2.10534 8.7016 1.47188 11.2985 3.29031C11.6914 3.56469 12.0484 3.88708 12.3614 4.25H10.2507C10.0518 4.25 9.86105 4.32902 9.7204 4.46967C9.57974 4.61032 9.50072 4.80109 9.50072 5C9.50072 5.19891 9.57974 5.38968 9.7204 5.53033C9.86105 5.67098 10.0518 5.75 10.2507 5.75H13.7507C13.9496 5.75 14.1404 5.67098 14.2811 5.53033C14.4217 5.38968 14.5007 5.19891 14.5007 5V1.5C14.5007 1.30109 14.4217 1.11032 14.2811 0.96967C14.1404 0.829018 13.9496 0.75 13.7507 0.75C13.5518 0.75 13.361 0.829018 13.2204 0.96967C13.0797 1.11032 13.0007 1.30109 13.0007 1.5V2.74897C12.7375 2.49925 12.4561 2.26945 12.1588 2.06147C11.379 1.51542 10.4992 1.12832 9.56979 0.922267C8.64033 0.716217 7.6794 0.695254 6.74185 0.860574C5.8043 1.02589 4.90849 1.37426 4.10557 1.88578C3.30264 2.3973 2.60834 3.06196 2.06229 3.84181C0.959489 5.41679 0.527514 7.36534 0.861393 9.25882C1.19527 11.1523 2.26766 12.8356 3.84263 13.9384C5.05524 14.7925 6.50214 15.2511 7.98535 15.2513C8.41255 15.2511 8.83892 15.2137 9.2596 15.1393C10.9382 14.8432 12.4588 13.9652 13.5544 12.6595C14.65 11.3538 15.2506 9.70383 15.2507 7.99934C15.2506 7.80055 15.1715 7.60996 15.0308 7.46945C14.8902 7.32894 14.6995 7.25001 14.5008 7.25Z" fill="black" fill-opacity="0.6"/>
</svg>
