<svg width="56" height="56" viewBox="0 0 56 56" fill="none" xmlns="http://www.w3.org/2000/svg">
<rect width="56" height="56" rx="28" fill="#98E2C8"/>
<g clip-path="url(#clip0_227_2259)">
<path d="M48.8393 32.7147C48.8393 32.7147 50.1009 28.0859 45.5542 27.9561C39.711 27.7891 34.8589 25.794 34.8589 25.794L24.3495 19.3566C18.7331 25.6525 7.7369 19.6709 7.7369 19.6709C6.35123 22.9184 7.34503 30.2854 7.34503 30.2854V36.9705H19.4103V34.0256L19.4107 34.0259C23.4397 35.8341 29.272 36.9705 35.7599 36.9705C40.6579 36.9705 45.1824 36.3227 48.8392 35.2273L48.8393 32.7147Z" fill="#AA8B65"/>
<path d="M9.88214 24.6331V20.6444C8.56545 20.1212 7.73694 19.6709 7.73694 19.6709C6.40549 22.7914 7.27084 29.7143 7.34057 30.251H12.9302C12.7047 26.8686 9.88214 24.6331 9.88214 24.6331Z" fill="#DACBBB"/>
<path d="M24.3738 19.3564C20.2979 23.9254 13.3901 22.0287 9.90649 20.6442V24.6328C9.90649 24.6328 12.729 26.8684 12.9545 30.2507H17.0867C21.2868 22.4999 32.988 29.3377 32.988 29.3377V24.6328L24.3738 19.3564Z" fill="#7C6145"/>
<path d="M26.0537 22.5586C25.9062 22.5586 25.7578 22.5083 25.6365 22.4052C25.3649 22.1747 25.3317 21.7676 25.5623 21.4961L27.4664 19.2534C27.697 18.9819 28.104 18.9486 28.3755 19.1792C28.6472 19.4098 28.6804 19.8168 28.4498 20.0884L26.5457 22.331C26.418 22.4812 26.2365 22.5586 26.0537 22.5586Z" fill="#4C3A2B"/>
<path d="M28.0317 23.8801C27.8842 23.8801 27.7358 23.8298 27.6146 23.7268C27.343 23.4962 27.3097 23.0892 27.5403 22.8177L29.4444 20.575C29.6749 20.3034 30.0821 20.2702 30.3536 20.5008C30.6252 20.7314 30.6584 21.1384 30.4278 21.4099L28.5237 23.6526C28.3961 23.8028 28.2145 23.8801 28.0317 23.8801Z" fill="#4C3A2B"/>
<path d="M29.8618 25.1085C29.7143 25.1085 29.5659 25.0582 29.4446 24.9552C29.173 24.7246 29.1398 24.3176 29.3704 24.046L31.2745 21.8034C31.505 21.5318 31.9121 21.4986 32.1837 21.7292C32.4553 21.9598 32.4885 22.3668 32.2579 22.6383L30.3538 24.881C30.2262 25.0312 30.0446 25.1085 29.8618 25.1085Z" fill="#4C3A2B"/>
<path d="M48.8604 32.6648C45.2007 33.7644 40.6738 34.4581 35.7685 34.4581C27.8778 34.4581 20.9566 32.777 17.0703 30.251H7.34912C7.35199 30.2728 7.35363 30.2853 7.35363 30.2853V36.9705H19.4189V34.0256C23.4479 35.8338 29.2806 36.9705 35.7685 36.9705C40.6665 36.9705 45.191 36.3227 48.8478 35.2272L48.8477 32.7147C48.8477 32.7147 48.8526 32.6972 48.8604 32.6648Z" fill="#7C6145"/>
<g opacity="0.2">
<path d="M48.1756 28.9407C42.8117 30.4651 27.7048 33.9673 7.34497 32.079V36.974H19.4103V34.0291L19.4106 34.0293C23.4396 35.8375 29.272 36.974 35.7598 36.974C40.6579 36.974 45.1823 36.3262 48.8392 35.2307V32.7182C48.8392 32.7184 49.4885 30.335 48.1756 28.9407Z" fill="#4C3A2B"/>
</g>
<path opacity="0.41" d="M19.4102 35.0031H7.34497V36.9706H19.4102V35.0031Z" fill="#4C3A2B"/>
</g>
<defs>
<clipPath id="clip0_227_2259">
<rect width="42" height="42" fill="white" transform="translate(7 7)"/>
</clipPath>
</defs>
</svg>
