<svg width="56" height="56" viewBox="0 0 56 56" fill="none" xmlns="http://www.w3.org/2000/svg">
<rect width="56" height="56" rx="28" fill="#CAF0DB"/>
<g clip-path="url(#clip0_1169_1791)">
<path fill-rule="evenodd" clip-rule="evenodd" d="M21.8119 19.5483L8.96836 22.5993C8.52548 22.6731 8.18102 23.0668 8.18102 23.5589L8.05799 33.3269V33.4253V47.9912C8.03339 48.1142 8.05799 48.2372 8.1072 48.3603C8.30404 48.877 8.89455 49.123 9.38664 48.9262L21.6643 44.1529L32.9824 47.9666C33.1793 48.0404 33.4007 48.065 33.6467 47.9912L47.007 44.2513C47.4745 44.1775 47.7944 43.7838 47.819 43.3163L47.942 33.5237C47.942 33.4991 47.942 33.4745 47.942 33.4253V18.884C47.942 18.761 47.9174 18.6133 47.8682 18.4903C47.6713 17.9982 47.1054 17.7276 46.6134 17.9244V17.949L35.7381 22.2056L21.8119 19.5483Z" fill="#4CE066"/>
<path fill-rule="evenodd" clip-rule="evenodd" d="M26.167 18.8348C25.2812 17.949 24.7399 16.7188 24.7399 15.3656C24.7399 14.0123 25.2812 12.7821 26.167 11.8963C27.0527 11.0105 28.283 10.4692 29.6362 10.4692C30.9895 10.4692 32.2197 11.0105 33.1055 11.8963C33.9912 12.7821 34.5571 14.0123 34.5571 15.3656C34.5571 16.7188 33.9912 17.949 33.1055 18.8348C32.2197 19.7206 30.9895 20.2865 29.6362 20.2865C28.283 20.2865 27.0527 19.7206 26.167 18.8348ZM36.058 9.65729C34.4095 8.00879 32.1459 7 29.6362 7C27.1265 7 24.8629 8.00879 23.2144 9.65729C21.5905 11.3058 20.5571 13.5694 20.5571 16.0791C20.5571 19.942 24.1494 23.9033 27.0527 27.1019C27.6925 27.8155 28.283 28.4552 28.8489 29.1441C28.8981 29.1933 28.9473 29.2425 29.0211 29.2917C29.4394 29.6608 30.0545 29.587 30.399 29.1687C30.9649 28.5044 31.58 27.8155 32.2197 27.1019C35.123 23.9033 38.7153 19.942 38.7153 16.0791C38.7153 13.5694 37.7065 11.3058 36.058 9.65729Z" fill="#FE4A4B"/>
<path fill-rule="evenodd" clip-rule="evenodd" d="M28.0615 32.3673H38.3462C38.6169 32.3673 38.8383 32.5888 38.8383 32.8594C38.8383 33.1301 38.6169 33.3515 38.3462 33.3515H28.0615C27.2004 33.3515 26.2408 33.5237 25.4781 33.9174C25.0598 34.1388 24.5431 34.5079 24.5431 35.0246C24.5431 35.123 24.5677 35.246 24.6169 35.3445C24.8137 35.935 25.5027 36.181 26.044 36.3286C26.7083 36.5009 27.4218 36.5993 28.1107 36.6731C29.2672 36.8453 31.2601 37.0422 32.0721 37.9525C32.4165 38.3216 32.5396 38.8137 32.5396 39.3304C32.5396 40.2162 31.9491 40.8067 31.1863 41.225C30.3252 41.6924 29.0211 41.9631 28.0615 41.9631H17.7522C17.4816 41.9631 17.2601 41.7417 17.2601 41.471C17.2601 41.2004 17.4816 40.9789 17.7522 40.9789H28.0615C28.8981 40.9789 29.9807 40.7575 30.7434 40.3638C31.1371 40.1424 31.5554 39.8225 31.5554 39.3304C31.5554 39.2074 31.5308 39.0844 31.5062 38.9859C31.2847 38.3954 30.5958 38.1494 30.0545 38.0018C29.3902 37.8295 28.6767 37.7557 27.9877 37.6573C26.8559 37.5097 24.8383 37.3128 24.0264 36.4025C23.6819 36.0088 23.5589 35.5167 23.5589 35.0246C23.5589 34.1142 24.2724 33.4745 25.0106 33.0562C25.8963 32.5888 27.0281 32.3673 28.0615 32.3673Z" fill="#FFD956"/>
<path fill-rule="evenodd" clip-rule="evenodd" d="M41.2742 32.8349C41.2742 32.5888 41.471 32.392 41.7171 32.392C41.9631 32.392 42.1599 32.5888 42.1599 32.8349C42.1599 33.0809 41.9631 33.2777 41.7171 33.2777C41.471 33.2777 41.2742 33.0809 41.2742 32.8349Z" fill="#FFD956"/>
<path fill-rule="evenodd" clip-rule="evenodd" d="M14.2584 41.0281C14.5044 41.0281 14.7259 41.2249 14.7259 41.471C14.7259 41.717 14.5044 41.9138 14.2584 41.9138C14.0123 41.9138 13.8155 41.717 13.8155 41.471C13.8155 41.2249 14.0123 41.0281 14.2584 41.0281Z" fill="#FFD956"/>
</g>
<defs>
<clipPath id="clip0_1169_1791">
<rect width="42" height="42" fill="white" transform="translate(7 7)"/>
</clipPath>
</defs>
</svg>
