<svg width="46" height="46" viewBox="0 0 46 46" fill="none" xmlns="http://www.w3.org/2000/svg">
<path d="M46 23C46 35.7025 35.7025 46 23 46C10.2975 46 0 35.7025 0 23C0 10.2975 10.2975 0 23 0C35.7025 0 46 10.2975 46 23Z" fill="white"/>
<path fill-rule="evenodd" clip-rule="evenodd" d="M23 44C34.598 44 44 34.598 44 23C44 11.402 34.598 2 23 2C11.402 2 2 11.402 2 23C2 34.598 11.402 44 23 44ZM23 46C35.7025 46 46 35.7025 46 23C46 10.2975 35.7025 0 23 0C10.2975 0 0 10.2975 0 23C0 35.7025 10.2975 46 23 46Z" fill="#00B14F"/>
<path d="M36.3562 20.9637C36.2686 20.6972 36.1526 21.011 36.1447 21.0325C36.1369 21.0547 35.5893 22.8778 35.3927 23.3486C35.1955 23.8194 34.9975 25.1494 34.4648 26.5246C33.9322 27.8998 34.0489 26.3333 34.0489 26.3333C34.0489 26.3333 34.5816 24.4292 34.655 24.1204C34.7283 23.8122 35.6049 20.3568 35.6049 20.3568L35.7367 19.6294C35.7367 19.6294 36.0949 18.2614 36.2914 17.4624C35.9169 19.0733 36.3384 20.8863 36.3577 20.9645L36.3562 20.9637Z" fill="#C7B6A1"/>
<path d="M35.2539 18.8499C35.3223 18.9574 35.2931 19.1336 35.1563 19.1437C35.0203 19.1537 34.9619 18.9086 34.9619 18.9086C34.9911 18.6048 35.1855 18.7424 35.2539 18.8499Z" fill="#C7B6A1"/>
<path d="M35.3221 17.4482C35.3221 17.4482 35.4246 18.0508 35.3171 18.2372C35.2103 18.4235 35.0835 18.4428 34.8592 18.2372C34.6349 18.0315 34.3479 17.8896 34.2603 17.7814C34.1727 17.6739 34.1641 17.56 34.1641 17.56C34.1641 17.56 33.8608 17.302 33.7532 17.2138C33.6464 17.1257 33.6407 17.0411 33.6564 16.9294C33.6564 16.9294 33.6564 16.5574 33.9384 16.7237C34.2204 16.8907 35.3221 17.4496 35.3221 17.4496V17.4482Z" fill="#C7B6A1"/>
<path d="M34.0412 27.7487C34.0412 27.7487 34.3332 27.8777 34.2605 28.1277C34.1872 28.3778 34.0996 28.7161 34.0996 28.7161C34.0996 28.7161 34.0554 28.8924 33.7927 28.9217C33.5299 28.9511 33.1938 28.9217 33.1938 28.9217C33.1938 28.9217 32.8868 28.8773 32.916 28.6573C32.9452 28.4373 32.9894 28.1277 32.9894 28.1277C32.9894 28.1277 33.0478 27.7522 33.2813 27.7487C33.5149 27.7451 34.0412 27.7487 34.0412 27.7487Z" fill="#C7B6A1"/>
<path d="M33.6534 29.9873C33.6683 30.1829 33.5487 30.5498 33.5487 30.5498C33.5487 30.5498 33.4369 30.8049 33.2325 30.7068C33.0281 30.6086 32.7255 30.729 32.7255 30.729C32.7255 30.729 32.5503 30.6186 32.5503 30.4617C32.5503 30.3047 32.6528 30.0855 32.6528 30.0855C32.6528 30.0855 32.729 29.801 32.974 29.7816C33.2197 29.7616 33.5017 29.7816 33.5017 29.7816C33.5017 29.7816 33.6384 29.7909 33.6534 29.9873Z" fill="#C7B6A1"/>
<path d="M32.8384 33.6111C33.0912 33.5717 33.2379 33.758 33.208 33.8755C33.1781 33.993 33.0812 34.1106 32.5749 34.0812C32.0679 34.0518 31.8343 34.1399 31.5907 34.1987C31.3479 34.2575 31.0552 34.2675 30.9968 34.1399C30.9384 34.0124 31.0552 33.8067 31.0552 33.8067C31.0552 33.8067 31.1229 33.5036 31.4348 33.5129C31.746 33.5229 32.5834 33.6505 32.8377 33.6111H32.8384Z" fill="#C7B6A1"/>
<path d="M33.2953 31.5159C33.2953 31.5159 33.5289 31.5832 33.5289 31.8376C33.5289 32.092 33.3266 32.7047 33.3466 32.8323C33.3658 32.9598 33.259 33.2042 32.967 33.2142C32.675 33.2243 32.0697 33.2214 31.6446 33.1992C31.5321 33.1934 31.4252 33.0917 31.4352 32.9154C31.4445 32.7391 31.8974 31.7789 31.8974 31.7789C31.8974 31.7789 32.0533 31.508 32.3453 31.5166C32.6373 31.5245 33.2953 31.5166 33.2953 31.5166V31.5159Z" fill="#C7B6A1"/>
<path d="M29.2192 31.4764C29.5404 31.245 29.4236 31.6262 29.4236 31.6262C29.4236 31.6262 29.0049 32.5377 28.9465 32.8122C28.8938 33.0601 28.9878 33.1547 29.1366 33.3124C29.3118 33.498 28.9956 33.5424 28.762 33.5474C28.5577 33.5517 28.1532 33.5274 27.8947 33.4048C27.7273 33.3253 27.5934 33.111 27.6711 32.9491C27.7138 32.8602 27.8462 32.8165 28.0214 32.6552C28.1966 32.494 29.2192 31.4764 29.2192 31.4764Z" fill="#C7B6A1"/>
<path d="M26.0928 24.0839C26.1078 24.2752 26.1662 24.2752 25.9468 25.0986C25.7275 25.922 24.3396 30.5534 24.2377 30.7884C24.1359 31.0235 24.106 31.2327 23.7927 31.3911C23.5434 31.5165 23.2806 31.5602 22.9374 31.5824C22.4111 31.6161 22.7472 31.2005 22.9374 30.906C23.0029 30.8049 23.1247 30.5964 23.2664 30.347C23.527 30.3527 23.6994 30.3922 23.6823 30.3076C23.668 30.2381 23.5021 30.1442 23.4074 30.0955C23.6445 29.6705 23.8988 29.199 24.0184 28.9503C24.2377 28.4946 24.91 26.8478 25.0852 26.2889C25.2603 25.7299 25.7717 24.1276 25.7717 24.1276C25.9326 23.8044 26.0786 23.8925 26.0928 24.0832V24.0839Z" fill="#C7B6A1"/>
<path d="M25.289 23.5248C25.5517 22.9952 25.8444 23.4073 25.7276 23.7455C25.6108 24.0838 25.0411 25.7599 24.851 26.1712C24.6609 26.5826 24.4273 27.186 24.1645 27.8474C23.9017 28.5088 23.4488 29.641 23.2587 29.8618C23.0685 30.0825 22.8934 30.1118 22.7032 30.0674C22.5131 30.023 22.6007 29.8173 22.6156 29.7292C22.6235 29.6797 22.7338 29.4906 22.862 29.2555C22.9617 29.0735 23.0728 28.8635 23.1561 28.67C23.3463 28.2286 23.901 27.0383 24.1788 26.6263C24.3824 26.3239 24.8859 24.7925 25.1387 24.0006C25.2306 23.714 25.289 23.5241 25.289 23.5241V23.5248Z" fill="#C7B6A1"/>
<path d="M24.6267 23.5057C24.7627 23.0155 25.1622 23.1725 25.133 23.4175C25.1195 23.5329 25.0647 23.7271 24.9878 23.96C24.7563 24.6573 24.3248 25.6913 24.208 25.9264C24.052 26.2402 23.6625 27.1518 23.5065 27.485C23.3506 27.8182 23.0778 28.4166 22.9219 28.7785C22.8635 28.9146 22.7901 29.0579 22.7118 29.197C22.5822 29.4284 22.4405 29.6484 22.3372 29.8082C22.172 30.0633 22.1428 30.2102 21.9676 30.1515C21.8338 30.1071 21.8751 29.953 21.942 29.8183C21.9626 29.776 21.9854 29.7351 22.0061 29.7007C22.0937 29.5538 22.3664 29.083 22.6199 28.691C22.8735 28.2991 23.127 27.6426 23.2438 27.3087C23.3606 26.9755 23.4481 26.7404 23.4966 26.5935C23.4994 26.5842 23.5037 26.5735 23.508 26.562C23.5806 26.385 23.8377 25.9271 23.9837 25.6233C24.1389 25.3001 24.49 23.9958 24.6267 23.5064V23.5057Z" fill="#C7B6A1"/>
<path d="M24.076 23.6718C24.2028 23.5937 24.4556 23.598 24.2954 23.9757C24.2249 24.1412 24.0839 24.7231 23.9058 25.2003C23.8503 25.3508 23.6096 25.9277 23.3604 26.5175C23.1111 27.1072 22.8533 27.7099 22.7615 27.9127C22.6247 28.2158 22.0835 29.2169 21.8179 29.7651C21.8001 29.8017 21.7837 29.836 21.768 29.8683C21.5416 30.3506 21.3593 30.5813 21.308 30.3233C21.2717 30.1428 21.4511 29.902 21.5487 29.6762C21.6463 29.4512 22.357 28.1205 22.7073 27.3265C23.0577 26.5325 23.8467 24.1111 23.8467 24.1111C23.8467 24.1111 23.9493 23.7485 24.076 23.6697V23.6718Z" fill="#C7B6A1"/>
<path d="M23.287 24.1425C23.433 24.0393 23.7064 23.8781 23.5042 24.4951C23.3012 25.1128 22.7757 26.8327 22.2345 27.8911C21.6939 28.9495 21.3657 29.6475 21.0438 30.4049C20.89 30.7138 20.3131 30.9345 20.7069 30.1111C21.1022 29.2878 21.6348 28.1706 21.8392 27.7291C22.0436 27.2877 22.4239 26.2737 22.6425 25.818C22.8618 25.3622 23.0812 24.5682 23.0812 24.5682C23.0812 24.5682 23.1396 24.245 23.2856 24.1418L23.287 24.1425Z" fill="#C7B6A1"/>
<path d="M22.4474 31.9866C22.4474 31.9866 22.5421 32.1113 22.4474 32.1773C22.352 32.2439 22.3377 32.2654 22.3085 32.3535C22.2793 32.4417 22.2573 32.4711 22.1846 32.4711C22.112 32.4711 21.7602 32.2805 21.5124 32.2289C21.2631 32.1773 21.1976 32.1773 21.0808 32.1257C20.964 32.0741 20.6863 32.0454 20.6863 32.0454C20.6863 32.0454 20.489 32.0891 20.6129 32.1629C20.7369 32.236 20.8394 32.2876 20.9996 32.2948C21.1613 32.3027 21.3578 32.3614 21.4896 32.4345C21.6213 32.5076 21.8371 32.6552 21.8791 32.7355C21.9211 32.8165 21.9062 33.1332 21.5416 33.0293C21.1755 32.9268 21.1684 32.7799 20.8622 32.6839C20.5553 32.5879 20.6429 32.7505 20.7162 32.7935C20.7896 32.838 21.0466 32.9548 21.1869 33.0916C21.246 33.149 21.4013 33.2507 21.439 33.3009C21.538 33.4328 21.4134 33.7545 21.1107 33.5582C20.8779 33.407 20.833 33.3231 20.6656 33.2056C20.4976 33.0881 20.3445 33.0207 20.1615 32.9705C19.9386 32.9096 19.7228 32.8974 19.7228 32.8974C19.7228 32.8974 19.4016 32.8272 19.6644 32.4266C19.7897 32.2346 20.066 32.221 20.0297 31.4119C20.0297 31.4119 20.9113 31.3911 21.3037 31.4757C21.6954 31.5595 22.3156 31.8018 22.4481 31.9859L22.4474 31.9866Z" fill="#C7B6A1"/>
<path d="M19.1677 36.5736C19.1677 36.5736 19.4596 36.6102 19.3065 36.7428C19.1534 36.8753 18.7738 36.8897 18.4085 36.8309C18.0432 36.7721 17.1958 36.5443 17.0427 36.4411C16.8888 36.3386 16.8888 36.2426 16.8888 36.2426C16.8888 36.2426 16.8732 36.0598 17.1374 36.1623C17.1374 36.1623 18.2547 36.6173 18.6791 36.6037C19.1021 36.5887 19.1684 36.5744 19.1684 36.5744L19.1677 36.5736Z" fill="#C7B6A1"/>
<path d="M18.4731 35.9343C18.5386 36.0081 18.5749 36.1844 18.4731 36.221C18.3706 36.2575 18.2616 36.2941 18.1192 36.221C17.9768 36.1472 17.8016 36.0074 17.9839 35.8605C17.9839 35.8605 18.0864 35.839 18.174 35.8161C18.2616 35.7932 18.4076 35.8605 18.4738 35.9336L18.4731 35.9343Z" fill="#C7B6A1"/>
<path d="M20.1679 33.6627C20.3211 34.1399 19.9928 34.2281 19.923 34.471C19.8532 34.7139 19.678 35.0744 19.5171 35.2062C19.3561 35.3388 19.2393 35.28 19.1517 35.3022C19.0641 35.3245 18.9837 35.3825 18.8598 35.3022C18.7359 35.222 18.8526 35.1109 18.9331 35.0156C19.0129 34.9196 19.5904 34.4273 19.678 33.6039C19.678 33.6039 20.0141 33.1847 20.1679 33.6627Z" fill="#C7B6A1"/>
<path d="M9.59717 23.9536C9.73603 24.2273 10.795 26.4438 10.8683 26.6201C10.9189 26.7412 10.9203 26.8874 10.9402 27.045C10.9495 27.1167 10.9623 27.1912 10.9851 27.2664C11.0585 27.5094 11.4238 28.112 11.4238 28.112C11.4238 28.112 11.4202 28.1665 11.4138 28.2611C11.3668 28.9791 11.161 32.0505 11.1026 32.1472C11.0364 32.2576 10.8762 32.3235 10.8762 32.3235C10.8762 32.3235 10.978 32.4045 10.9929 32.6696C11.0015 32.8309 10.8804 33.885 10.8377 34.6883C10.8042 34.6231 10.7722 34.555 10.7444 34.4848C10.6219 34.1802 10.5165 33.6213 10.1854 33.0301C9.91834 32.5528 9.52382 31.5388 9.38211 31.1655C9.64773 30.7563 10.0558 30.2633 10.1241 30.0676C10.2117 29.8176 10.2993 29.7882 10.5771 29.465C10.8548 29.1418 10.9716 28.7448 10.9566 28.4503C10.9417 28.1557 10.8398 27.8326 10.6497 27.4356C10.4596 27.0386 10.065 26.9941 10.065 26.9941C9.75455 26.9633 9.47326 27.0873 9.21191 27.2765C9.20692 27.1826 9.20051 27.045 9.19553 26.9282C9.19411 26.9017 9.1998 26.8307 9.20906 26.7283C9.26959 26.0676 9.51029 24.0897 9.51029 24.0897C9.51029 24.0897 9.45902 23.6784 9.59788 23.9521L9.59717 23.9536Z" fill="#C7B6A1"/>
<path d="M19.9485 26.9805C20.0218 27.1568 20.0147 27.3481 19.9413 27.4291C19.868 27.5093 19.7298 27.5538 19.5547 27.5316C19.3795 27.5101 18.8895 27.4807 18.9187 27.26C18.9187 27.26 19.2762 26.9138 19.4592 26.863C19.6423 26.8121 19.8758 26.8042 19.9485 26.9805Z" fill="#C7B6A1"/>
<path d="M17.823 27.1487C17.9027 27.2447 17.6983 27.3035 17.5894 27.325C17.4804 27.3472 17.1657 27.325 17.1657 27.325C17.1657 27.325 16.9542 27.2813 17.0418 27.1853C17.0418 27.1853 17.1657 27.0011 17.239 26.9502C17.3124 26.8993 17.3928 26.87 17.5388 26.9287C17.6848 26.9875 17.7432 27.0534 17.8237 27.1487H17.823Z" fill="#C7B6A1"/>
<path d="M16.8882 26.6057C17.005 26.6716 17.027 26.6716 16.9466 26.7526C16.8668 26.8329 16.8148 26.7669 16.7343 26.8329C16.6546 26.8995 16.5741 27.0385 16.4865 27.1123C16.3989 27.1862 16.3185 27.2005 16.2373 27.1346C16.1575 27.0679 16.1205 26.9067 16.0771 26.8544C16.0329 26.8035 15.9382 26.8035 15.8435 26.7146C15.7481 26.6265 15.9311 26.5305 15.9311 26.5305C16.2159 26.4717 16.7707 26.5383 16.8875 26.6043L16.8882 26.6057Z" fill="#C7B6A1"/>
<path d="M15.5582 27.0464C15.6386 27.156 15.6315 27.2664 15.4927 27.2814C15.3538 27.2958 15.1345 27.2664 14.9806 27.2814C14.8275 27.2958 14.5719 27.4506 14.5498 27.2076C14.5498 27.2076 14.5576 27.0385 14.7542 26.9067C14.9507 26.7748 15.0682 26.7741 15.2292 26.7963C15.3894 26.8185 15.477 26.936 15.5575 27.0471L15.5582 27.0464Z" fill="#C7B6A1"/>
<path d="M14.4482 26.4731C14.5508 26.481 14.5871 26.5612 14.5722 26.6422C14.5579 26.7232 14.2951 26.9511 14.2439 26.9948C14.1926 27.0385 13.9661 26.7153 13.8999 26.6422C13.8999 26.6422 13.8273 26.5025 13.9733 26.4659C14.1192 26.4294 14.3457 26.4659 14.4475 26.4731H14.4482Z" fill="#C7B6A1"/>
<path d="M13.6365 27.0901L13.6222 27.1417C13.6222 27.1417 13.5154 27.2328 13.4065 27.308C13.0205 27.2836 12.6623 27.2607 12.3497 27.2392C12.2991 27.1475 12.2827 27.0077 12.475 26.8472C12.8182 26.5606 12.9279 26.5606 13.0597 26.5677C13.1914 26.5749 13.1843 26.7297 13.3011 26.8615C13.4179 26.9934 13.5197 27.0013 13.6002 26.987C13.6806 26.9719 13.6514 27.0378 13.6365 27.0894V27.0901Z" fill="#C7B6A1"/>
<path d="M17.2724 25.0935C17.0772 25.1042 16.5887 25.0906 16.1465 25.072L16.1529 24.9358C16.9519 24.9702 18.1191 24.8914 18.5385 24.819C19.1374 24.7158 19.2834 24.1576 19.2542 23.9519C19.225 23.7463 19.0206 23.6725 18.3776 23.4374C18.3206 23.4159 18.2487 23.3865 18.1668 23.3493C18.2223 23.2418 18.2693 23.1085 18.2238 23.0196C18.2302 22.9215 18.1803 22.8613 18.1974 22.7416C18.2166 22.604 18.4018 22.5553 18.4602 22.389C18.5186 22.2221 18.5962 21.7219 18.6838 21.5162C18.7543 21.3507 18.9444 21.2933 19.0164 21.2769C19.2706 21.3077 19.5533 21.3664 19.658 21.3987C19.784 21.4381 19.8617 21.5513 19.8524 21.6194C19.8332 21.757 19.648 21.7813 19.502 21.8401C19.356 21.8989 19.1125 21.9189 19.0249 22.0558C18.9373 22.1927 18.8789 22.4772 18.8789 22.6542C18.8789 22.7989 18.8262 23.0963 18.8077 23.2626C19.1467 23.4052 19.3973 23.517 19.4443 23.5557C19.6003 23.6832 19.5903 23.8788 19.5611 24.0852C19.5319 24.2916 19.1524 24.8893 18.9473 24.9674C18.7422 25.0455 17.6227 25.0749 17.2716 25.0949L17.2724 25.0935Z" fill="#C7B6A1"/>
<path d="M11.2506 22.6285C11.2101 22.9954 11.1901 23.4583 11.2186 23.5988C11.2627 23.8195 11.1161 24.2896 11.5768 24.4365C12.0368 24.5834 13.8193 24.5397 13.9218 24.4214C14.0244 24.3032 14.0244 24.2007 14.2288 24.1864C14.4331 24.172 15.0178 24.5977 15.4173 24.8184C15.5369 24.8844 15.8111 24.9202 16.1529 24.9352L16.1465 25.0714C15.7962 25.0563 15.4743 25.037 15.3532 25.0241C15.2108 25.009 15.0199 24.9209 14.8711 24.8406C14.1846 24.8557 13.266 24.85 12.7333 24.8084C11.8467 24.7403 11.6231 24.7597 11.3888 24.8772C11.1545 24.9947 11.1744 25.0929 11.1452 25.181C11.1161 25.2692 11.1161 25.7199 11.1161 25.7199C11.1161 25.7199 11.3105 25.955 11.564 25.9843C11.8168 26.0137 11.7292 25.9163 11.7292 25.9163C11.7292 25.9163 11.5348 25.7694 11.6224 25.6124C11.71 25.4555 11.836 25.4756 12.061 25.4949C12.2847 25.5143 13.6391 25.6905 14.6325 25.6905C15.626 25.6905 19.6096 25.8181 19.9799 25.8181C20.3502 25.8181 20.3203 26.1019 20.3203 26.1019C20.3203 26.1019 20.2135 26.2395 20.1159 26.3663C20.0184 26.4938 19.9799 26.6408 19.9799 26.6408C19.9799 26.6408 19.4928 26.572 19.2785 26.6013C19.0641 26.6307 18.9181 26.807 18.8305 26.8951C18.7429 26.9833 18.6262 27.0327 18.5386 27.0227C18.451 27.0127 18.169 26.6508 18.0315 26.6013C17.8955 26.5526 16.4634 26.4057 15.8887 26.3864C15.3133 26.3663 13.8236 26.0926 13.3265 26.0926C12.8294 26.0926 12.2455 25.9843 12.1387 25.975C12.0318 25.965 11.8659 26.0531 11.9635 26.1219C12.061 26.19 12.353 26.2194 12.4406 26.2688C12.5282 26.3176 12.7126 26.357 12.5866 26.4645C12.4598 26.572 12.1579 26.6802 12.0796 26.8364C12.0148 26.9675 12.0169 27.1051 11.9464 27.2097C11.46 27.1746 11.1531 27.1467 11.1303 27.1331C11.0854 27.1058 11.0691 27.0714 11.0655 27.032C11.0598 26.9618 11.0933 26.8765 11.0797 26.7877C11.0577 26.6479 10.9843 26.5748 10.9181 26.3907C10.8526 26.2065 10.7579 25.7729 10.6845 25.6999C10.6119 25.626 9.69108 23.7521 9.69108 23.7521C9.69108 23.7521 9.43543 23.0391 9.36279 22.9359C9.58213 22.8915 11.0869 22.7066 11.0869 22.7066V22.627C11.0869 22.627 11.1004 22.612 11.2506 22.627V22.6285Z" fill="#C7B6A1"/>
<path d="M33.987 21.4417C33.987 21.4417 34.0454 21.9125 33.9677 22.2163C33.8901 22.5202 33.6466 22.2902 33.393 22.0444C33.1395 21.8 32.792 21.5083 32.5648 21.3557C32.1988 21.1113 31.3863 20.7208 30.9476 20.662C30.5089 20.6033 30.8507 21.0347 30.8507 21.0347C30.8507 21.0347 32.5164 22.8577 32.7593 23.1415C33.0028 23.4253 33.1004 23.2103 32.8276 23.8767C32.5549 24.5432 31.3663 25.5923 30.7532 26.0624C30.1393 26.5332 30.1771 26.0781 30.1294 25.9248C29.3944 24.9939 28.2223 23.0369 28.1333 22.8964C27.8605 22.4686 27.7622 22.6334 27.8121 23.1021C28.0457 25.0527 28.9415 27.1409 29.1367 27.5228C29.3318 27.9048 29.1367 28.023 28.9422 28.1505C28.7478 28.2774 28.1532 29.0714 27.978 29.3358C27.8028 29.6002 27.7252 29.9736 27.5394 29.209C27.3542 28.4444 26.7403 24.2393 26.7403 23.7785C26.7403 23.3178 26.4683 23.0827 26.4683 23.0827C26.4683 23.0827 26.0887 22.7201 25.6793 22.2887C25.2698 21.8573 24.8026 22.2593 24.8026 22.2593C24.8026 22.2593 23.5365 23.249 23.3022 23.3866C23.0686 23.5234 22.8151 23.5922 22.6107 23.6804C22.4063 23.7685 22.3572 23.7979 22.328 24.1411C22.2988 24.4844 20.8575 28.6887 20.7015 29.0714C20.5455 29.4533 19.6889 30.7869 19.6305 30.8851C19.5721 30.9826 19.4937 31.1395 19.5329 31.2183C19.5721 31.2972 19.6889 31.4147 19.6889 31.4147C19.6889 31.4147 19.6397 31.6884 19.5913 31.8948C19.5429 32.1012 19.4061 32.2474 19.1434 32.2674C18.8806 32.2868 16.9322 32.2474 16.6887 32.2381C16.4458 32.228 14.2731 32.1793 13.942 32.1299C13.6108 32.0811 12.695 32.1592 12.1503 32.1793C11.6041 32.1987 11.7508 31.8755 11.7508 31.8755C11.7508 31.8755 11.7123 31.2771 11.7707 30.4638C11.8291 29.6504 11.5464 28.435 11.5464 28.2874C11.5464 28.2803 11.5464 28.2731 11.5464 28.2666C11.5571 28.142 11.6625 28.1599 11.6625 28.1599C11.6625 28.1599 19.4845 28.4343 19.7273 28.4343C19.9701 28.4343 20.0684 28.2774 20.0684 28.2774L20.4188 27.2483C20.4188 27.2483 21.4022 24.5138 21.4606 23.8574C21.5048 23.6754 21.5966 23.6517 21.655 23.6023C21.7134 23.5535 24.1881 22.7201 25.2691 21.5836C25.4493 21.4023 25.2691 21.3485 25.2007 21.3485C25.1815 21.2998 25.2883 21.1622 25.2883 21.1622C25.2883 21.1622 25.5411 20.8096 25.7362 20.6033C25.9307 20.3976 26.1058 20.025 26.4469 19.9268C26.7881 19.8293 28.8924 19.6824 29.9535 18.7709C30.4406 18.3832 30.5189 18.1532 30.5773 18.045C30.6357 17.9375 30.5481 17.9963 30.4313 18.0063C30.3145 18.0156 27.8114 18.9665 27.3435 19.0841C26.8757 19.2016 27.0608 18.9372 27.0608 18.7903C27.0608 18.6434 28.0158 17.1435 28.0934 16.9278C28.171 16.7128 28.473 16.5752 28.6973 16.3889C28.9216 16.2026 29.0576 16.1338 29.0476 16.0363C29.0384 15.9382 28.8725 15.9482 28.7265 15.9776C28.5805 16.007 27.9766 16.409 27.8206 16.644C27.6654 16.8791 25.6579 20.0063 25.3075 20.3976C24.9572 20.7896 24.5477 21.5542 24.3341 21.7993C24.1197 22.0436 23.9737 22.1913 23.5158 22.1418C23.0579 22.0931 21.4998 21.6911 20.9928 21.6122C20.6467 21.5341 20.7143 21.4352 20.7008 21.2891C20.6887 21.1594 20.8275 21.044 20.8368 20.8777C20.8468 20.7115 20.8275 20.3482 20.8275 20.3482L20.7108 20.3288C20.7108 20.3288 20.7492 20.3675 20.72 20.5932C20.6908 20.8182 20.6524 20.9164 20.574 20.9164C20.4957 20.9164 19.0835 20.6907 18.7531 20.6025C18.422 20.5144 17.9733 20.3876 17.7789 20.3775C17.5845 20.3675 17.5767 20.4119 17.5382 20.422C17.4991 20.432 17.3531 20.3439 17.3139 20.3238C17.2755 20.3044 16.8731 20.2794 16.6687 20.2206C16.4643 20.1618 16.4252 20.1425 16.396 20.035C16.3668 19.9268 16.4059 19.8 16.4935 19.7799C16.5811 19.7605 16.6787 19.8 16.8339 19.8C16.9892 19.8 17.2427 19.8487 17.3994 19.8L17.5553 19.7505C17.5553 19.7505 17.3801 19.7312 17.1758 19.6824C16.9714 19.633 16.8546 19.643 16.7179 19.633C16.5818 19.6237 16.4814 19.5964 16.4323 19.5585C16.2827 19.4445 16.329 19.3392 16.3383 19.251C16.3483 19.1629 16.4166 19.1435 16.5135 19.1142C16.611 19.0848 16.757 19.1335 16.8738 19.1335C16.9906 19.1335 17.1558 19.1629 17.3025 19.0454C17.3025 19.0454 16.6502 18.9673 16.4067 18.9572C16.3091 18.9536 16.2507 18.9558 16.2122 18.9687L16.2315 18.8497C16.2507 18.7308 16.2414 18.7716 16.2023 18.6734C16.1631 18.5753 16.1631 18.4871 16.2899 18.399C16.4166 18.3108 16.6659 18.3603 16.6659 18.3603H16.6687C16.678 18.3976 16.7107 18.4341 16.7798 18.4535L17.707 18.7035C17.707 18.7035 18.0211 18.7107 18.1236 18.6226C18.2254 18.5344 18.3572 18.432 18.5103 18.4535C18.6634 18.4749 19.0586 18.6448 19.0586 18.6448C19.0586 18.6448 19.2046 18.8576 19.3214 18.9314C19.4382 19.0045 20.1026 19.5413 20.3369 19.5706C20.5712 19.6 20.8261 19.6294 20.9799 19.6151C21.1338 19.6007 21.163 19.7032 21.2506 19.762C21.3381 19.8207 21.8566 19.916 22.0175 19.9454C22.1785 19.9748 22.5288 20.1439 22.7118 20.0629C22.8941 19.9827 23.0693 19.762 23.0693 19.762C23.0693 19.762 23.9388 17.3212 24.1575 16.8361C24.3775 16.3509 24.4943 16.2334 24.4281 16.1381C24.3618 16.0421 24.1867 16.05 24.1069 16.0206C24.0271 15.9912 23.9752 15.9174 23.9752 15.7855C23.9752 15.6537 25.2905 14.7407 25.4293 14.6017C25.8089 14.3588 25.6187 13.845 25.079 14.0356C24.3483 14.5945 23.216 15.5505 23.216 15.5505C23.216 15.5505 23.0337 15.7117 22.9604 15.7117C22.887 15.7117 22.5374 15.984 22.5003 16.0578C22.5723 15.807 22.9027 14.9536 22.9127 14.927C22.9333 14.9199 22.9532 14.9091 22.9725 14.8919C23.0601 14.8131 23.3328 14.3817 23.5066 13.9804C23.6796 13.5784 24.4238 12.1667 24.5506 11.8055C24.6773 11.4436 25.106 11.5196 25.106 11.5196C25.106 11.5196 26.3914 11.794 26.8593 11.8721C27.3271 11.951 27.5223 12.0183 27.7943 12.2054C28.5449 12.7349 30.5146 14.8074 31.0331 15.2337C31.382 15.5204 31.575 15.6895 31.8071 16.3509C32.0799 17.38 33.5504 20.4134 33.7747 20.8548C33.9984 21.2962 33.9884 21.4431 33.9884 21.4431L33.987 21.4417ZM17.5745 31.2585C17.6913 31.0893 17.2726 30.9453 17.1067 30.9353C16.9408 30.9252 16.9799 30.8371 16.7755 30.8371C16.5712 30.8371 14.6036 30.9453 14.6036 30.9453C14.516 30.984 14.506 31.0528 14.642 31.0822C14.7787 31.1116 16.5875 31.4448 16.9671 31.4641C17.3467 31.4835 17.4008 31.5086 17.5738 31.2585H17.5745Z" fill="#C7B6A1"/>
<path d="M19.2203 13.4594C19.2082 13.4709 19.023 13.64 18.9582 13.7726C18.8899 13.9094 18.7731 14.204 18.6079 14.204C18.4426 14.204 18.2183 14.0571 18.0816 13.9395C17.9449 13.822 17.848 13.822 17.9648 13.6063C18.0816 13.3913 18.6755 12.9986 18.929 13.0574C19.1818 13.1161 19.2602 12.9793 19.4453 12.8811C19.6305 12.7829 19.864 12.6066 20.1076 12.6066C20.3511 12.6066 20.3412 12.6561 20.4679 12.4597C20.5947 12.2641 20.6139 11.7833 20.6531 11.5683C20.6915 11.3526 20.9351 11.4601 21.0526 11.4336C21.1701 11.407 21.8708 11.7245 22.0068 11.7446C22.1436 11.7639 22.3572 11.8033 22.5039 11.6464C22.625 11.5167 22.9397 11.1175 23.0829 10.9011C23.0829 10.9011 23.4119 11.2788 23.9175 11.0796C23.7993 11.6149 23.6191 12.3637 23.6098 12.4325C23.5949 12.535 23.1932 13.2559 23.1776 13.4028C23.1619 13.5497 22.8137 14.0635 22.8137 14.2333C22.8137 14.4032 22.4783 14.7851 22.4783 14.7851C22.4605 14.8948 22.6022 14.9198 22.6898 14.9198C22.7368 14.9198 22.7895 14.9342 22.8415 14.9349C22.4184 15.0015 22.4697 15.1707 22.229 15.2624C21.9876 15.3548 21.7918 15.2445 21.7747 15.2337C22.0175 15.2989 22.0218 15.1907 21.8829 15.0037C21.7604 14.8382 21.5012 14.841 21.472 14.7629C21.4428 14.6848 21.4229 14.5472 21.3161 14.606C21.2093 14.6647 21.0341 14.8704 20.9166 14.9198C20.7998 14.9686 20.6922 14.841 20.6047 14.7923C20.5171 14.7436 20.4202 14.7335 20.2735 14.841C20.1275 14.9492 20.0926 14.9757 20.0107 14.9392C19.8697 14.8761 19.6604 14.616 19.5429 14.5078C19.4261 14.3996 19.3186 14.3114 19.1825 14.2821C19.0465 14.2527 19.0266 14.1746 19.0465 13.9589C19.065 13.7503 19.2124 13.4766 19.221 13.4594H19.2203ZM21.7868 12.4296C21.9769 12.5672 22.0695 12.3415 21.9912 12.229C21.9135 12.1158 21.373 11.8413 21.373 11.8413C21.2826 11.794 20.9735 11.7876 20.9009 11.8413C20.8276 11.8958 20.8468 12.0033 20.9301 12.062C21.0127 12.1208 21.2313 12.0964 21.373 12.1358C21.5148 12.1752 21.5967 12.2928 21.7868 12.4296ZM19.7587 14.1158C19.8206 14.0606 19.894 13.7926 19.894 13.6744C19.894 13.5561 19.8135 13.4981 19.7587 13.4981C19.7038 13.4981 19.6853 13.5346 19.6853 13.6522C19.6853 13.7697 19.4624 14.0571 19.4624 14.0571C19.503 14.1896 19.696 14.171 19.7587 14.1158Z" fill="#C7B6A1"/>
<path d="M16.7464 14.1253C16.6816 14.1926 16.6502 14.2457 16.6403 14.2858C16.5947 14.1919 16.7271 13.9683 16.9621 13.5857C17.1971 13.203 16.9621 12.8884 16.9621 12.8884C17.0519 12.9035 17.1658 12.9056 17.3018 12.8605C17.5062 12.7917 18.5388 12.2428 18.5972 12.2721C18.6556 12.3015 18.8115 12.2814 18.6456 12.4871C18.4804 12.6928 16.7464 14.1246 16.7464 14.1246V14.1253Z" fill="#C7B6A1"/>
<path d="M20.7304 9.41067C21.1691 9.38129 21.0516 9.54754 21.0032 9.61634C20.954 9.68513 20.2042 10.1359 19.6687 10.4103C19.1331 10.6848 16.3665 12.1646 16.2597 12.2714C16.2241 12.3065 16.2106 12.3316 16.2084 12.3502C15.8951 12.0693 15.7982 12.0377 15.769 12.0392C15.8331 12.0098 15.9008 11.9575 15.9563 11.8801C16.1678 11.5863 17.711 10.5171 18.2472 10.1746C18.7835 9.83204 20.2925 9.43934 20.7311 9.40996L20.7304 9.41067Z" fill="#C7B6A1"/>
<path d="M16.7467 14.1253C16.7467 14.1253 18.4808 12.6942 18.646 12.4886C18.8119 12.2829 18.656 12.3023 18.5976 12.2729C18.5392 12.2435 17.5066 12.7924 17.3022 12.8612C17.0978 12.93 16.9419 12.8906 16.8443 12.8612C16.7467 12.8318 16.2796 12.4692 16.2597 12.4298C16.2404 12.3904 16.1528 12.3782 16.2597 12.2722C16.3665 12.1654 19.1331 10.6856 19.6686 10.4111C20.2041 10.1367 20.954 9.68594 21.0031 9.61715C21.0516 9.54835 21.1691 9.3821 20.7304 9.41148C20.2917 9.44086 18.782 9.83284 18.2465 10.1761C17.711 10.5194 16.1671 11.5878 15.9556 11.8816C15.7434 12.1754 15.3638 12.1131 15.5974 11.767C15.831 11.4208 17.3022 9.95037 17.6718 9.66587C18.0421 9.38138 19.1623 8.98008 19.6878 8.92061C20.2141 8.86184 21.6455 8.71494 21.9766 8.74432C22.3078 8.7737 22.4053 8.89122 22.3177 8.92061C22.2301 8.94999 21.9866 8.96002 22.0258 9.05748C22.0649 9.15565 22.1917 9.78268 22.2985 9.91024C22.4053 10.0378 22.7172 10.1653 22.834 10.1947C22.9508 10.2241 23.0192 10.2341 23.0875 10.3517C23.1559 10.4692 23.2143 10.6455 23.1459 10.7931C23.0776 10.94 22.6489 11.4889 22.5029 11.6459C22.3569 11.8028 22.1425 11.7634 22.0058 11.744C21.8698 11.7247 21.1683 11.4072 21.0516 11.433C20.9348 11.4595 20.6912 11.3513 20.6521 11.567C20.6129 11.7827 20.5937 12.2629 20.4669 12.4592C20.3401 12.6556 20.3501 12.6061 20.1066 12.6061C19.863 12.6061 19.6294 12.7824 19.4443 12.8806C19.2591 12.9787 19.1815 13.1156 18.928 13.0568C18.6745 12.9981 18.0806 13.3901 17.9638 13.6058C17.847 13.8215 17.9445 13.8215 18.0806 13.939C18.2166 14.0565 18.4409 14.2034 18.6068 14.2034C18.7728 14.2034 18.8895 13.9096 18.9572 13.772C19.0256 13.6352 19.22 13.4581 19.22 13.4581C19.22 13.4581 19.064 13.7426 19.0448 13.9583C19.0256 14.174 19.0448 14.2521 19.1808 14.2815C19.3168 14.3109 19.4243 14.3991 19.5411 14.5073C19.6579 14.6147 19.868 14.8756 20.009 14.9387C20.0909 14.9752 20.1258 14.9487 20.2718 14.8405C20.4178 14.733 20.5153 14.7423 20.6029 14.7918C20.6905 14.8412 20.798 14.968 20.9148 14.9193C21.0316 14.8706 21.2068 14.6642 21.3143 14.6054C21.4212 14.5467 21.4411 14.6835 21.4703 14.7624C21.4995 14.8412 21.7587 14.8376 21.8812 15.0039C22.0201 15.1916 22.0158 15.2991 21.7722 15.2332C21.4895 15.0017 21.4703 15.2482 21.2951 15.0569C21.1392 15.1157 21.0416 15.2805 20.9348 15.2669C20.828 15.2532 20.4961 15.0175 20.4669 15.0375L20.4377 15.0569C20.4377 15.0569 20.2298 15.5191 20.0831 15.4503C19.9364 15.3815 19.6679 15.1063 19.5312 14.91C19.3952 14.7136 19.3531 14.6972 19.2463 14.6377C19.1395 14.5789 19.0932 14.5961 18.9664 14.6355C18.8397 14.6749 18.0898 14.2923 17.8562 14.1748C17.6227 14.0572 17.6319 13.9691 17.5251 13.9196C17.4183 13.8709 17.0765 14.1848 16.8436 14.341C16.7631 14.432 16.4818 14.4019 16.746 14.1253H16.7467Z" fill="#231F20"/>
<path d="M21.1543 8.90625C21.1543 8.90625 21.4854 8.80808 21.6172 8.82814C21.7489 8.84749 21.8216 8.91127 21.8657 8.98006C21.9099 9.04886 21.9683 9.04384 21.9775 9.11264C21.9875 9.18143 21.9626 9.37205 21.8999 9.29895C21.8365 9.22514 21.8073 9.10762 21.7489 9.13198C21.6905 9.15635 21.6955 9.23016 21.6855 9.26456C21.6756 9.29895 21.588 9.3183 21.5396 9.22013C21.4911 9.12195 21.5153 9.06821 21.4712 9.04384C21.427 9.01948 21.4612 9.03381 21.3644 9.03381C21.2675 9.03381 21.2768 8.89192 21.155 8.90625H21.1543Z" stroke="#231F20" stroke-miterlimit="10"/>
<path d="M21.3737 11.8414C21.3737 11.8414 21.9142 12.1158 21.9925 12.2283C22.0701 12.3409 21.9776 12.5666 21.7881 12.429C21.598 12.2921 21.5154 12.1739 21.3744 12.1352C21.2334 12.0958 21.0141 12.1201 20.9315 12.0614C20.8488 12.0026 20.8289 11.8944 20.9023 11.8407C20.9756 11.7869 21.284 11.7934 21.3744 11.8407L21.3737 11.8414Z" fill="#231F20"/>
<path d="M19.4629 14.0565C19.4629 14.0565 19.6858 13.7699 19.6858 13.6524C19.6858 13.5348 19.7043 13.4983 19.7591 13.4983C19.814 13.4983 19.8944 13.5571 19.8944 13.6746C19.8944 13.7921 19.8211 14.0608 19.7591 14.116C19.6972 14.1712 19.5035 14.1898 19.4636 14.0572L19.4629 14.0565Z" fill="#231F20"/>
<path d="M16.7781 18.4528L17.706 18.7029C17.706 18.7029 18.02 18.71 18.1226 18.6219C18.2251 18.5337 18.3562 18.4305 18.51 18.4528C18.6638 18.475 19.0576 18.6441 19.0576 18.6441C19.0576 18.6441 19.2036 18.8569 19.3204 18.9307C19.4372 19.0045 20.1023 19.5406 20.3359 19.5699C20.5695 19.5993 20.8251 19.6287 20.9789 19.6144C21.1328 19.6 21.1612 19.7025 21.2495 19.7613C21.3378 19.82 21.8556 19.9154 22.0165 19.9447C22.1774 19.9741 22.5278 20.1432 22.7108 20.0623C22.8938 19.9813 23.069 19.7606 23.069 19.7606C23.069 19.7606 23.9385 17.3198 24.1579 16.8347C24.3772 16.3495 24.494 16.232 24.4285 16.136C24.363 16.04 24.1871 16.0478 24.1073 16.0185C24.0276 15.9891 23.9756 15.9153 23.9756 15.7834C23.9756 15.6516 25.2909 14.7393 25.429 14.5996C25.8086 14.3566 25.6192 13.8421 25.0787 14.0335C24.348 14.5924 23.2157 15.5476 23.2157 15.5476C23.2157 15.5476 23.0334 15.7096 22.9601 15.7096C22.8867 15.7096 22.5364 15.9819 22.5 16.055C22.4637 16.1281 22.5292 16.2241 22.6026 16.2678C22.6759 16.3115 22.9608 16.5989 22.9608 16.5989C22.9608 16.5989 23.1801 16.7315 23.2236 16.7609C23.267 16.7902 23.2649 17.1356 23.1787 17.2904C23.0925 17.4445 22.9971 17.7612 22.9971 17.7612C22.9971 17.7612 22.9166 18.1726 22.9024 18.2242C22.8881 18.2758 22.6318 18.7974 22.6318 18.7974C22.6318 18.7974 22.5734 19.1944 22.5442 19.3342C22.515 19.4739 22.4858 19.5398 22.0692 19.4883C21.6526 19.4367 21.6163 19.4295 21.4995 19.4589C21.3827 19.4883 21.3314 19.5176 21.2146 19.5105C21.0979 19.5033 21.0907 19.3779 20.9953 19.2826C20.8999 19.1873 20.63 19.1651 20.4769 19.0182C20.3238 18.8713 20.2654 18.9816 20.1265 18.93C19.9877 18.8784 19.8929 18.3933 19.7612 18.3496C19.6294 18.3059 19.2933 18.1439 19.1552 18.1217C19.017 18.0995 18.7756 18.1217 18.5926 18.0701C18.4096 18.0185 18.3512 18.0407 18.1034 18.1066C17.8548 18.1726 17.8328 18.2098 17.6725 18.217C17.5123 18.2242 17.2339 18.1582 17.1028 18.2019C16.9718 18.2457 16.986 18.3266 16.9348 18.3051C16.8835 18.2836 16.7525 18.217 16.7012 18.2607C16.6499 18.3044 16.6449 18.4148 16.7817 18.452L16.7781 18.4528Z" fill="#231F20"/>
<path d="M14.6032 30.9446C14.6032 30.9446 16.5708 30.8372 16.7752 30.8372C16.9796 30.8372 16.9411 30.9253 17.1064 30.9353C17.2723 30.9454 17.691 31.0894 17.5742 31.2585C17.4012 31.5093 17.3478 31.4843 16.9682 31.4642C16.5886 31.4441 14.7791 31.1116 14.6424 31.0822C14.5064 31.0529 14.5156 30.9841 14.6032 30.9454V30.9446Z" fill="#231F20"/>
<path d="M38.0659 28.0316C37.9634 27.8553 37.9783 27.8259 37.9342 27.2153C37.89 26.6055 37.7811 26.4436 37.6856 26.2967C37.5902 26.1498 37.6856 25.775 37.6856 25.598C37.6856 25.421 37.4884 25.2375 37.4884 25.2375L37.3353 24.8771C37.3353 24.8771 36.4437 21.2381 36.3561 20.9665C36.2685 20.695 36.1517 21.011 36.1446 21.0325C36.1375 21.054 35.5891 22.8777 35.3919 23.3478C35.1946 23.8179 34.9974 25.1487 34.464 26.5238C33.9306 27.8983 34.0474 26.3325 34.0474 26.3325C34.0474 26.3325 34.5808 24.4285 34.6534 24.1196C34.7267 23.8108 35.6034 20.356 35.6034 20.356L35.7351 19.6279C35.7351 19.6279 36.4002 17.0919 36.4145 16.9077C36.4287 16.7235 36.2101 16.687 36.1439 16.6576C36.0777 16.6282 36.0463 16.5838 36.0492 16.5107C36.1225 14.6067 34.2518 15.7167 34.2518 15.7167C34.2518 15.7167 34.1784 15.7826 33.8722 15.577C33.566 15.3713 33.3901 15.5992 33.3459 15.6651C33.3018 15.731 33.2434 16.0327 33.054 16.4885C32.8645 16.9442 32.6523 16.5988 32.6374 16.5766C32.6224 16.5544 32.3233 15.8271 32.272 15.5547C32.2208 15.2824 32.0819 15.0331 31.9359 14.783C31.7899 14.5329 28.8894 12.0778 28.663 11.8864C28.4365 11.6951 27.9907 11.4529 27.75 11.4307C27.5093 11.4085 25.0617 10.747 24.93 10.7177C24.7983 10.6883 24.6231 10.5263 24.4621 10.3945C24.3012 10.2626 24.0163 10.3873 24.0163 10.5485C24.0163 10.7098 23.6218 12.3279 23.6076 12.4303C23.5933 12.5328 23.191 13.2537 23.1753 13.4006C23.1597 13.5475 22.8114 14.0621 22.8114 14.2312C22.8114 14.4003 22.4753 14.7822 22.4753 14.7822C22.4582 14.8926 22.5992 14.917 22.6868 14.917C22.7744 14.917 22.8819 14.9657 22.9695 14.8876C23.0571 14.8095 23.3299 14.3781 23.5036 13.9761C23.6774 13.5741 24.4208 12.1631 24.5476 11.8012C24.6744 11.44 25.1031 11.516 25.1031 11.516C25.1031 11.516 26.3884 11.7904 26.8563 11.8685C27.3242 11.9466 27.5186 12.0147 27.7913 12.2018C28.5412 12.7313 30.5117 14.8037 31.0301 15.2301C31.379 15.5168 31.572 15.6859 31.8042 16.3473C32.0769 17.3764 33.5475 20.4105 33.7718 20.8512C33.9961 21.2926 33.9861 21.4395 33.9861 21.4395C33.9861 21.4395 34.0445 21.9103 33.9669 22.2142C33.8893 22.518 33.6457 22.288 33.3922 22.0429C33.1387 21.7978 32.7912 21.5062 32.564 21.3542C32.198 21.1092 31.3854 20.7193 30.9468 20.6606C30.5081 20.6018 30.8492 21.0332 30.8492 21.0332C30.8492 21.0332 32.5149 22.8562 32.7584 23.1407C33.002 23.4252 33.0995 23.2095 32.8268 23.876C32.554 24.5424 31.3655 25.5915 30.7524 26.0616C30.1385 26.5324 30.1763 26.0774 30.1292 25.9247C29.3936 24.9939 28.2222 23.0368 28.1324 22.8964C27.8597 22.4678 27.7614 22.6334 27.8113 23.102C28.0449 25.0526 28.9414 27.1401 29.1358 27.5228C29.331 27.9047 29.1358 28.023 28.9407 28.1498C28.7456 28.2774 28.1517 29.0714 27.9765 29.3358C27.8013 29.6002 27.723 29.9728 27.5378 29.2082C27.3527 28.4436 26.7388 24.2386 26.7388 23.7778C26.7388 23.317 26.4661 23.082 26.4661 23.082C26.4661 23.082 26.0865 22.7194 25.677 22.288C25.2683 21.8566 24.8004 22.2586 24.8004 22.2586C24.8004 22.2586 23.5342 23.2482 23.3007 23.3858C23.0671 23.5227 22.8136 23.5915 22.6092 23.6796C22.4048 23.7678 22.3557 23.7971 22.3265 24.1404C22.2973 24.4836 20.8559 28.6887 20.7 29.0706C20.544 29.4526 19.6866 30.7862 19.6282 30.8836C19.5698 30.9818 19.4922 31.1388 19.5307 31.2169C19.5698 31.295 19.6866 31.4132 19.6866 31.4132C19.6866 31.4132 19.6382 31.6877 19.589 31.8933C19.5406 32.099 19.4039 32.2459 19.1411 32.266C18.8783 32.2853 16.93 32.2466 16.6864 32.2366C16.4429 32.2266 14.2709 32.1778 13.9397 32.1291C13.6086 32.0804 12.6928 32.1585 12.1473 32.1778C11.6018 32.1972 11.7478 31.874 11.7478 31.874C11.7478 31.874 11.7086 31.2763 11.767 30.4623C11.8254 29.6489 11.5427 28.4336 11.5427 28.286C11.5427 28.1383 11.6595 28.1584 11.6595 28.1584C11.6595 28.1584 19.4808 28.4329 19.7243 28.4329C19.9679 28.4329 20.0655 28.2759 20.0655 28.2759L20.4158 27.2469C20.4158 27.2469 21.3993 24.5123 21.4584 23.8552C21.5025 23.6739 21.5944 23.6495 21.6535 23.6001C21.7126 23.5506 24.1858 22.7179 25.2676 21.5807C25.4477 21.3994 25.2676 21.3456 25.1992 21.3456C25.18 21.2969 25.2868 21.1593 25.2868 21.1593C25.2868 21.1593 25.5403 20.8067 25.7347 20.6004C25.9298 20.3947 26.105 20.0221 26.4454 19.9239C26.7865 19.8257 28.8901 19.6788 29.9519 18.7673C30.439 18.3803 30.5166 18.1496 30.575 18.0421C30.6334 17.9346 30.5458 17.9934 30.4291 18.0027C30.3123 18.0127 27.8091 18.9629 27.3413 19.0812C26.8734 19.1994 27.0586 18.9343 27.0586 18.7874C27.0586 18.6404 28.0128 17.1406 28.0911 16.9249C28.1688 16.7092 28.4707 16.5723 28.695 16.386C28.9193 16.1997 29.0554 16.1309 29.0454 16.0334C29.0354 15.9353 28.8702 15.9453 28.7242 15.9747C28.5782 16.0041 27.9743 16.4061 27.8184 16.6411C27.6624 16.8762 25.6557 20.0034 25.3053 20.3954C24.9549 20.7874 24.5455 21.552 24.3311 21.7971C24.1168 22.0422 23.9708 22.1891 23.5129 22.1403C23.055 22.0916 21.4968 21.6896 20.9898 21.6108C20.6437 21.5327 20.7114 21.4338 20.6978 21.2876C20.685 21.1572 20.8246 21.0425 20.8338 20.8763C20.8438 20.7093 20.8239 20.3467 20.8239 20.3467L20.7071 20.3273C20.7071 20.3273 20.7463 20.3668 20.7171 20.5918C20.6879 20.8175 20.6487 20.915 20.5711 20.915C20.4934 20.915 19.0806 20.6892 18.7494 20.6011C18.4183 20.5129 17.9704 20.3854 17.7753 20.3753C17.5801 20.3653 17.573 20.4097 17.5338 20.4198C17.4947 20.4298 17.3487 20.3417 17.3095 20.3216C17.2704 20.3023 16.8687 20.2772 16.6643 20.2184C16.46 20.1597 16.4208 20.1403 16.3916 20.0321C16.3624 19.9246 16.4016 19.7971 16.4892 19.777C16.5767 19.7569 16.6743 19.7963 16.8303 19.7963C16.9862 19.7963 17.239 19.8451 17.395 19.7963L17.5509 19.7476C17.5509 19.7476 17.3758 19.7283 17.1714 19.6788C16.967 19.6301 16.8502 19.6394 16.7135 19.6301C16.5775 19.62 16.477 19.5935 16.4272 19.5556C16.2777 19.4416 16.3239 19.3363 16.3332 19.2481C16.3432 19.16 16.4108 19.1406 16.5084 19.1113C16.6059 19.0819 16.7519 19.1306 16.8687 19.1306C16.9855 19.1306 17.1514 19.16 17.2974 19.0425C17.2974 19.0425 16.6451 18.9644 16.4016 18.9543C16.158 18.9443 16.158 18.9737 16.0996 19.1012C16.0412 19.2288 16.0996 19.4151 16.168 19.4638L16.2363 19.5126C16.2363 19.5126 16.178 19.5907 16.1295 19.7283C16.0811 19.8651 16.0904 20.0615 16.1196 20.1496C16.0419 20.1396 16.1096 20.4341 16.0711 20.5516C16.032 20.6692 15.6816 21.2424 15.584 21.4438C15.5242 21.5671 15.3405 21.6645 15.74 21.8458C15.7735 21.8659 15.8105 21.8881 15.8497 21.9118C15.849 21.8602 15.8611 21.7985 15.913 21.7498C16.0227 21.6466 16.0227 21.676 16.0661 21.5663C16.1096 21.4567 16.1829 21.4266 16.2413 21.4488C16.2997 21.471 16.2705 21.537 16.3218 21.6323C16.3731 21.7276 16.3802 21.7133 16.4899 21.7133C16.5995 21.7133 16.5846 21.7498 16.6508 21.8308C16.717 21.9118 16.7605 21.9189 16.6871 22.0436C16.6138 22.1683 16.6359 22.2564 16.5632 22.2865C16.5404 22.2959 16.5162 22.3045 16.492 22.3116L16.2712 22.47V22.7129L17.3814 23.1465L17.6813 23.5728L17.8856 23.6244L18.0537 23.5212C18.0537 23.5212 18.3079 23.1866 18.221 23.016C18.2282 22.9179 18.1776 22.8577 18.1947 22.7373C18.2139 22.6004 18.3991 22.551 18.4575 22.3847C18.5159 22.2177 18.5935 21.7183 18.6818 21.5126C18.7523 21.3471 18.9424 21.289 19.0144 21.2733C19.2686 21.3041 19.552 21.3628 19.656 21.3951C19.7827 21.4345 19.8604 21.5477 19.8511 21.6158C19.8319 21.7527 19.6467 21.7777 19.5007 21.8365C19.3548 21.8953 19.1112 21.9146 19.0236 22.0522C18.936 22.1891 18.8776 22.4736 18.8776 22.6499C18.8776 22.7946 18.8249 23.092 18.8064 23.259C19.1447 23.4016 19.3961 23.5141 19.4423 23.5521C19.5983 23.6796 19.5883 23.8752 19.5591 24.0816C19.5299 24.288 19.1504 24.8857 18.9453 24.9638C18.7409 25.0419 17.6207 25.0713 17.2696 25.0913C16.9193 25.1107 15.6232 25.0519 15.3505 25.0225C15.208 25.0075 15.0179 24.9193 14.8684 24.8391C14.1819 24.8541 13.2639 24.8484 12.7305 24.8068C11.8439 24.738 11.6203 24.7581 11.386 24.8756C11.1518 24.9932 11.1717 25.0913 11.1425 25.1795C11.1133 25.2676 11.1133 25.7184 11.1133 25.7184C11.1133 25.7184 11.3084 25.9534 11.5612 25.9828C11.8147 26.0122 11.7272 25.914 11.7272 25.914C11.7272 25.914 11.532 25.7671 11.6203 25.6102C11.7079 25.4532 11.8347 25.4733 12.059 25.4926C12.2833 25.512 13.6371 25.689 14.6305 25.689C15.6239 25.689 19.6076 25.8165 19.9779 25.8165C20.3482 25.8165 20.319 26.101 20.319 26.101C20.319 26.101 20.2122 26.2379 20.1146 26.3655C20.017 26.493 19.9786 26.6399 19.9786 26.6399C19.9786 26.6399 19.4915 26.5711 19.2771 26.6005C19.0628 26.6299 18.9168 26.8062 18.8292 26.8943C18.7416 26.9824 18.6248 27.0312 18.5372 27.0219C18.4496 27.0118 18.1669 26.6492 18.0309 26.6005C17.8949 26.5518 16.4628 26.4042 15.8881 26.3848C15.3134 26.3655 13.8229 26.091 13.3266 26.091C12.8302 26.091 12.2456 25.9835 12.1381 25.9735C12.0312 25.9634 11.8653 26.0516 11.9629 26.1204C12.0604 26.1892 12.3524 26.2185 12.44 26.2673C12.5276 26.316 12.7127 26.3554 12.586 26.4636C12.4592 26.5711 12.1573 26.6793 12.0797 26.8363C12.0149 26.9674 12.017 27.105 11.9465 27.2096C11.4608 27.1738 11.1532 27.1466 11.1304 27.1329C11.0065 27.0591 11.1012 26.9273 11.0791 26.7875C11.057 26.6478 10.9844 26.5747 10.9182 26.3905C10.852 26.2064 10.7572 25.7728 10.6846 25.6997C10.612 25.6266 9.69118 23.752 9.69118 23.752C9.69118 23.752 9.43553 23.039 9.36218 22.9358C9.58151 22.8914 11.0862 22.7065 11.0862 22.7065V22.6269C11.0862 22.6269 10.8669 22.6119 10.3122 22.6269C9.7567 22.642 9.22901 22.7925 9.22901 22.7925C9.16136 22.7509 9.07875 22.7516 8.98262 22.877C8.80814 23.1049 8.99686 23.2002 8.99686 23.2002C8.95271 23.1486 9.01893 23.0676 9.09157 23.0755C9.16421 23.0834 9.20836 23.193 9.25963 23.6932C9.30307 24.1196 9.09157 26.6765 9.0289 27.4189C9.00683 27.4375 8.85586 28.9309 8.90855 29.9005C8.96481 30.9245 9.22616 31.4276 9.23115 31.4168C9.40847 31.8847 9.98885 33.4039 10.1249 33.6125C10.2851 33.859 10.3933 34.2374 10.4759 34.5405C10.5507 34.8157 10.701 35.3488 10.8562 35.5616C10.8683 35.5975 10.884 35.6175 10.9039 35.6175C11.1375 35.6175 16.8068 35.3309 17.0624 35.3452C17.3181 35.3596 17.3181 35.5287 17.2739 35.6025C17.2298 35.6763 16.8502 35.9551 16.6387 36.1908C16.4272 36.4266 16.6458 36.6688 16.675 36.7713C16.7042 36.8738 16.5433 36.9476 16.4557 37.1389C16.3681 37.3302 16.7477 37.5502 17.3102 37.5653C17.8728 37.5803 20.1666 37.227 20.5461 37.1238C20.9257 37.0207 21.0354 36.8738 21.2476 36.5649C21.4598 36.256 21.766 36.1901 21.766 36.1901C21.766 36.1901 22.716 36.1607 23.0443 36.1385C23.3726 36.1163 23.5043 36.1091 23.76 35.9472C24.0156 35.7852 24.2058 35.6312 24.6437 35.6161C25.0824 35.6011 28.1944 35.4398 28.8659 35.3882C29.5382 35.3366 32.4672 35.1969 32.8403 35.1897C33.2135 35.1826 34.6085 35.1159 35.2729 34.9769C35.9381 34.8372 36.5954 34.0503 36.6609 33.9844C36.7264 33.9185 36.7122 33.8518 36.6096 33.8447C36.5071 33.8375 36.2884 33.8224 36.0328 33.6906C35.7771 33.5587 33.9 32.8966 33.8195 32.8672C33.739 32.8378 33.7611 32.7497 33.7611 32.7497L34.0096 31.5659C34.0096 31.5659 34.0901 31.5365 34.1777 31.3602C34.2653 31.1839 33.9441 31.0442 33.9071 30.8693C33.8722 30.7031 34.1143 30.0567 34.1385 29.9915C34.1485 30.008 34.2176 30.0689 34.5644 30.2946C35.0614 30.6178 35.0828 30.2065 35.4481 29.927C35.8135 29.6475 35.8569 29.9786 35.9231 30.3383C35.9893 30.698 35.9381 30.5074 36.4494 30.7575C36.9607 31.0076 37.1067 30.7941 37.326 30.5447C37.5453 30.2946 37.6913 28.8542 37.7205 28.7947C37.7497 28.7353 37.7497 28.8757 37.8815 28.8829C38.0132 28.8901 38.1663 28.2064 38.0638 28.0301L38.0659 28.0316ZM17.1578 22.2314C17.0774 22.3195 17.0119 22.202 17.0047 22.0773C16.9976 21.9526 17.1365 21.9153 17.1365 21.9153C17.2825 21.9304 17.239 22.1432 17.1586 22.2314H17.1578ZM19.4587 26.8628C19.641 26.8112 19.8753 26.804 19.948 26.9803C20.0206 27.1566 20.0135 27.3479 19.9408 27.4289C19.8682 27.5099 19.7293 27.5536 19.5534 27.5321C19.3775 27.5106 18.8883 27.4805 18.9182 27.2598C18.9182 27.2598 19.2764 26.9144 19.4587 26.8628ZM17.0403 27.186C17.0403 27.186 17.1643 27.0025 17.2376 26.9509C17.3109 26.8993 17.3907 26.8699 17.5374 26.9287C17.6841 26.9875 17.7418 27.0534 17.8223 27.1494C17.9027 27.2454 17.6983 27.3035 17.5887 27.3257C17.479 27.3479 17.165 27.3257 17.165 27.3257C17.165 27.3257 16.9535 27.2813 17.0411 27.186H17.0403ZM15.9301 26.5317C16.215 26.4729 16.7704 26.5389 16.8872 26.6055C17.004 26.6722 17.0261 26.6714 16.9456 26.7524C16.8652 26.8334 16.8139 26.7675 16.7341 26.8334C16.6544 26.8993 16.5732 27.0391 16.4856 27.1129C16.398 27.1867 16.3175 27.201 16.2371 27.1351C16.1566 27.0692 16.1203 26.9072 16.0761 26.8556C16.032 26.804 15.9373 26.804 15.8425 26.7159C15.7478 26.6277 15.9301 26.5324 15.9301 26.5324V26.5317ZM14.7537 26.9065C14.951 26.7739 15.0677 26.7739 15.2287 26.7961C15.3896 26.8183 15.4772 26.9359 15.5577 27.0462C15.6382 27.1566 15.631 27.2669 15.4922 27.2813C15.3533 27.2956 15.134 27.2662 14.9809 27.2813C14.8278 27.2963 14.5721 27.4504 14.55 27.2075C14.55 27.2075 14.5572 27.0383 14.7544 26.9058L14.7537 26.9065ZM13.9718 26.4651C14.1178 26.4285 14.3442 26.4651 14.4468 26.4722C14.5493 26.4794 14.5856 26.5604 14.5707 26.6413C14.5557 26.7223 14.293 26.9502 14.2417 26.9939C14.1904 27.0376 13.9639 26.7144 13.8984 26.6413C13.8984 26.6413 13.8251 26.5016 13.9718 26.4651ZM12.4742 26.847C12.8174 26.5604 12.9271 26.5604 13.0588 26.5675C13.1906 26.5747 13.1827 26.7295 13.3002 26.8613C13.4177 26.9932 13.5196 27.0011 13.6001 26.986C13.6805 26.971 13.6513 27.0376 13.6364 27.0892L13.6214 27.1408C13.6214 27.1408 13.5146 27.2318 13.4064 27.3078C13.0197 27.2834 12.6622 27.2605 12.3503 27.239C12.299 27.1473 12.2833 27.0075 12.4749 26.847H12.4742ZM11.1005 32.147C11.035 32.2574 10.874 32.3233 10.874 32.3233C10.874 32.3233 10.9766 32.4043 10.9908 32.6687C10.9994 32.8299 10.879 33.8848 10.8356 34.6867C10.8028 34.6215 10.7708 34.5534 10.7423 34.4832C10.6198 34.1786 10.5144 33.6196 10.1833 33.0284C9.91621 32.5512 9.5217 31.5372 9.37927 31.1638C9.64489 30.7547 10.0529 30.2616 10.122 30.066C10.2096 29.8159 10.2972 29.7865 10.5749 29.4633C10.8527 29.1401 10.9695 28.7431 10.9545 28.4486C10.9395 28.1541 10.8377 27.8309 10.6476 27.4339C10.4574 27.0369 10.0629 26.9925 10.0629 26.9925C9.75243 26.961 9.47185 27.0849 9.20978 27.2748C9.2048 27.1809 9.19839 27.0434 9.19412 26.9266C9.187 26.7281 9.50817 24.0888 9.50817 24.0888C9.50817 24.0888 9.45689 23.6775 9.59576 23.9512C9.73462 24.225 10.7936 26.4414 10.8669 26.6177C10.9403 26.794 10.9111 27.0219 10.9837 27.2648C11.0563 27.5077 11.4224 28.1104 11.4224 28.1104C11.4224 28.1104 11.1667 32.0359 11.1012 32.1463L11.1005 32.147ZM25.1315 23.4159C25.0767 23.8767 24.3617 25.6116 24.2065 25.9255C24.0505 26.2393 23.661 27.1509 23.505 27.4841C23.3491 27.8173 23.0763 28.4149 22.9204 28.7775C22.7644 29.1401 22.5016 29.5522 22.3357 29.8066C22.1698 30.0617 22.1406 30.2086 21.9654 30.1498C21.7902 30.0911 21.917 29.846 22.0046 29.6991C22.0922 29.5522 22.3649 29.0814 22.6184 28.6894C22.872 28.2974 23.1248 27.6403 23.2416 27.3071C23.3583 26.9739 23.4459 26.7388 23.4951 26.5919C23.5435 26.445 23.8262 25.9448 23.9822 25.6216C24.1381 25.2984 24.4885 23.9942 24.6252 23.5048C24.7612 23.0146 25.1607 23.1715 25.1315 23.4166V23.4159ZM24.0747 23.671C24.2015 23.5929 24.4543 23.5972 24.2941 23.9749C24.2236 24.1411 24.0826 24.7223 23.9045 25.2003C23.7927 25.5012 22.9425 27.5084 22.7602 27.9126C22.6142 28.2358 22.0074 29.3537 21.7667 29.8682C21.541 30.3505 21.358 30.5812 21.3067 30.324C21.2711 30.1434 21.4505 29.9026 21.5481 29.6769C21.6457 29.4512 22.3564 28.1211 22.7075 27.3271C23.0585 26.5331 23.8469 24.1124 23.8469 24.1124C23.8469 24.1124 23.9494 23.7498 24.0755 23.671H24.0747ZM20.7071 30.1104C21.1016 29.2871 21.635 28.1699 21.8394 27.7284C22.0438 27.287 22.424 26.273 22.6427 25.8172C22.862 25.3615 23.0813 24.5675 23.0813 24.5675C23.0813 24.5675 23.1397 24.2443 23.2857 24.1411C23.4317 24.0379 23.7059 23.8767 23.5029 24.4937C23.2999 25.1114 22.7744 26.8312 22.2339 27.8897C21.6934 28.9481 21.3644 29.6468 21.0432 30.4035C20.8901 30.7124 20.3126 30.9331 20.7071 30.1097V30.1104ZM17.9825 35.859C17.9825 35.859 18.085 35.8368 18.1726 35.8146C18.2602 35.7924 18.4062 35.859 18.4724 35.9321C18.5387 36.0052 18.575 36.1822 18.4724 36.2188C18.3699 36.2553 18.2609 36.2926 18.1185 36.2188C17.9761 36.145 17.8002 36.0059 17.9832 35.8583L17.9825 35.859ZM19.3049 36.7412C19.1518 36.8738 18.7715 36.8881 18.4062 36.8293C18.0409 36.7706 17.1934 36.5427 17.0403 36.4395C16.8872 36.3363 16.8872 36.241 16.8872 36.241C16.8872 36.241 16.8716 36.0575 17.1358 36.16C17.1358 36.16 18.2538 36.6158 18.6775 36.6014C19.1012 36.5864 19.1668 36.5721 19.1668 36.5721C19.1668 36.5721 19.4587 36.6086 19.3056 36.7412H19.3049ZM19.9223 34.4695C19.8532 34.7125 19.6774 35.0722 19.5171 35.2048C19.3569 35.3373 19.2394 35.2786 19.1518 35.3001C19.0642 35.3216 18.9837 35.3811 18.8598 35.3001C18.7359 35.2191 18.8527 35.1088 18.9332 35.0134C19.0136 34.9181 19.5905 34.4251 19.6781 33.6017C19.6781 33.6017 20.0142 33.1825 20.1673 33.6605C20.3204 34.1385 19.9921 34.2266 19.9223 34.4688V34.4695ZM22.4461 32.1757C22.3514 32.2416 22.3364 32.2638 22.3072 32.352C22.278 32.4401 22.256 32.4695 22.1833 32.4695C22.1107 32.4695 21.7596 32.2782 21.5111 32.2266C21.2625 32.175 21.197 32.175 21.0802 32.1234C20.9635 32.0718 20.6857 32.0424 20.6857 32.0424C20.6857 32.0424 20.4885 32.0868 20.6124 32.1599C20.7363 32.233 20.8388 32.2846 20.9998 32.2925C21.1607 32.3004 21.358 32.3584 21.489 32.4322C21.62 32.506 21.8365 32.6529 21.8785 32.7339C21.9206 32.8149 21.9056 33.1309 21.5403 33.0277C21.175 32.9245 21.1678 32.7776 20.8609 32.6823C20.554 32.587 20.6416 32.7483 20.7149 32.7927C20.7883 32.8371 21.0453 32.9532 21.1863 33.0901C21.2455 33.1474 21.4007 33.2492 21.4384 33.2993C21.5367 33.4305 21.4121 33.7529 21.1094 33.5566C20.8759 33.4054 20.8317 33.3215 20.6636 33.204C20.4956 33.0865 20.3425 33.0191 20.1595 32.969C19.9373 32.9081 19.7208 32.8952 19.7208 32.8952C19.7208 32.8952 19.3996 32.8249 19.6624 32.4244C19.7877 32.233 20.064 32.2187 20.0277 31.4096C20.0277 31.4096 20.9093 31.3889 21.3017 31.4727C21.6934 31.5565 22.3144 31.7995 22.4461 31.9829C22.4461 31.9829 22.5408 32.1076 22.4461 32.1743V32.1757ZM22.6142 29.7278C22.6291 29.6396 22.9645 29.1101 23.1547 28.6693C23.3448 28.2279 23.8996 27.0376 24.1773 26.6256C24.455 26.2142 25.2875 23.5234 25.2875 23.5234C25.5503 22.9938 25.843 23.4059 25.7262 23.7441C25.6094 24.0823 25.0397 25.7585 24.8495 26.1698C24.6594 26.5812 24.4258 27.1845 24.163 27.846C23.9003 28.5074 23.4474 29.6396 23.2572 29.8603C23.0671 30.0811 22.8919 30.1104 22.7018 30.066C22.5116 30.0216 22.5992 29.8159 22.6142 29.7278ZM25.9455 25.0963C25.7262 25.9197 24.3382 30.5511 24.2364 30.7862C24.1346 31.0212 24.1046 31.2312 23.7906 31.3889C23.5421 31.5135 23.2793 31.558 22.936 31.5802C22.4105 31.6139 22.7459 31.1982 22.936 30.9037C23.0016 30.8027 23.1233 30.5941 23.265 30.3448C23.5257 30.3505 23.698 30.3906 23.6816 30.3061C23.6681 30.2366 23.5022 30.142 23.4068 30.0932C23.6439 29.6683 23.8981 29.1968 24.0178 28.9481C24.2371 28.4923 24.9094 26.8456 25.0845 26.2866C25.2597 25.7277 25.771 24.1253 25.771 24.1253C25.932 23.8022 26.078 23.8903 26.0922 24.0809C26.1064 24.2715 26.1655 24.2722 25.9462 25.0956L25.9455 25.0963ZM29.4228 31.6246C29.4228 31.6246 29.0041 32.5361 28.9457 32.8106C28.893 33.0585 28.987 33.1531 29.1358 33.3108C29.311 33.4971 28.9948 33.5408 28.7605 33.5458C28.5562 33.5501 28.1517 33.5265 27.8939 33.4039C27.7265 33.3244 27.5919 33.1101 27.6696 32.9482C27.7123 32.8593 27.8447 32.8156 28.0199 32.6544C28.1951 32.4931 29.2177 31.4748 29.2177 31.4748C29.5389 31.2441 29.4221 31.6246 29.4221 31.6246H29.4228ZM35.1547 19.1421C35.0187 19.1521 34.9596 18.907 34.9596 18.907C34.9888 18.6032 35.1839 18.7401 35.2516 18.8483C35.3199 18.9558 35.2908 19.1328 35.154 19.1421H35.1547ZM33.7518 17.2108C33.645 17.1227 33.6386 17.0381 33.6543 16.9263C33.6543 16.9263 33.6543 16.5537 33.937 16.7207C34.2197 16.8876 35.3199 17.4459 35.3199 17.4459C35.3199 17.4459 35.4225 18.0485 35.315 18.2349C35.2081 18.4212 35.0814 18.4405 34.8571 18.2349C34.6327 18.0292 34.3458 17.8866 34.2582 17.7791C34.1706 17.6716 34.162 17.5569 34.162 17.5569C34.162 17.5569 33.8587 17.299 33.7511 17.2101L33.7518 17.2108ZM33.2064 33.874C33.1772 33.9916 33.0796 34.1091 32.5733 34.0797C32.0669 34.0503 31.8327 34.1385 31.5898 34.1972C31.3463 34.256 31.0543 34.266 30.9959 34.1385C30.9375 34.0109 31.0543 33.8052 31.0543 33.8052C31.0543 33.8052 31.1227 33.5014 31.4339 33.5114C31.7458 33.5215 32.5832 33.6483 32.8368 33.6096C33.0903 33.5702 33.2363 33.7565 33.2071 33.874H33.2064ZM33.3452 32.8299C33.3644 32.9575 33.2576 33.2026 32.9657 33.2119C32.6737 33.2219 32.0684 33.2191 31.6432 33.1968C31.5314 33.1911 31.4239 33.0894 31.4339 32.9124C31.4438 32.7361 31.8967 31.7758 31.8967 31.7758C31.8967 31.7758 32.0527 31.5049 32.3447 31.5128C32.6367 31.5207 33.2947 31.5128 33.2947 31.5128C33.2947 31.5128 33.5282 31.5795 33.5282 31.8346C33.5282 32.0897 33.326 32.7017 33.3459 32.8292L33.3452 32.8299ZM33.5475 30.5483C33.5475 30.5483 33.4357 30.8034 33.2306 30.7052C33.0262 30.607 32.7242 30.7274 32.7242 30.7274C32.7242 30.7274 32.5491 30.6171 32.5491 30.4601C32.5491 30.3032 32.6516 30.0832 32.6516 30.0832C32.6516 30.0832 32.7278 29.7987 32.9728 29.7794C33.2185 29.76 33.5005 29.7794 33.5005 29.7794C33.5005 29.7794 33.6372 29.7894 33.6514 29.985C33.6664 30.1814 33.5475 30.5483 33.5475 30.5483ZM34.2582 28.1254C34.1848 28.3755 34.0972 28.7138 34.0972 28.7138C34.0972 28.7138 34.0531 28.8901 33.7903 28.9194C33.5275 28.9488 33.1914 28.9194 33.1914 28.9194C33.1914 28.9194 32.8845 28.875 32.9137 28.655C32.9429 28.435 32.987 28.1254 32.987 28.1254C32.987 28.1254 33.0454 27.7499 33.279 27.7471C33.5126 27.7435 34.0388 27.7471 34.0388 27.7471C34.0388 27.7471 34.3308 27.8761 34.2582 28.1254Z" fill="#231F20"/>
<path d="M9.26226 26.208L9.08921 28.1615C9.08921 28.1615 8.97527 29.5237 9.08921 29.9996C9.20315 30.4754 9.33419 31.3453 9.80704 32.0182C10.2799 32.6911 10.8674 30.1307 10.8674 30.1307L11.0632 28.2432L10.3098 26.4488L9.26297 26.2073L9.26226 26.208Z" fill="#C7B6A1"/>
<path d="M15.2322 22.7939L15.0806 23.8595C15.0806 23.8595 16.2356 24.3217 16.4087 24.3217C16.5817 24.3217 17.9127 23.9534 17.9127 23.9534L17.385 23.1501L15.2322 22.7932V22.7939Z" fill="#C7B6A1"/>
<path d="M12.5191 21.0756L11.577 21.3931C11.577 21.3931 11.1839 22.4228 11.2508 22.6278C11.3178 22.8327 14.1015 22.0882 14.1015 22.0882L14.2282 20.9731L12.5191 21.0756Z" fill="#C7B6A1"/>
<path d="M19.2549 23.9512C19.2257 23.7456 19.0214 23.6717 18.3783 23.4367C17.7353 23.2017 15.3539 21.8559 15.2079 21.8344C15.0619 21.8129 14.901 21.5184 14.8867 21.3929C14.8725 21.2675 14.8063 21.0325 14.6966 21.0182C14.5869 21.0038 14.609 21.1285 14.5065 21.0698C14.4039 21.011 14.3534 20.9522 14.3313 20.7903C14.3092 20.6283 14.2508 20.614 13.8492 20.6799C13.4475 20.7459 11.5775 21.3929 11.5775 21.3929C11.8331 21.408 12.1351 21.3413 12.6364 21.3342C12.8408 21.3313 13.7758 21.183 13.9588 21.2095C14.2145 21.246 13.9275 21.7419 13.1292 21.8444C12.6998 21.8996 12.4726 21.9204 12.076 21.9662C11.742 22.0049 11.4237 21.9813 11.3361 22.1719C11.2485 22.3625 11.1751 23.3772 11.2193 23.5979C11.2634 23.8187 11.1167 24.2887 11.5775 24.4357C12.0382 24.5826 13.82 24.5388 13.9225 24.4206C14.0251 24.3024 14.0251 24.1999 14.2294 24.1856C14.4338 24.1712 15.0185 24.5969 15.418 24.8176C15.8182 25.0383 17.9403 24.9208 18.5392 24.8176C19.1381 24.7144 19.2841 24.1562 19.2549 23.9505V23.9512ZM17.1364 23.7699C16.786 23.78 16.5225 23.7305 16.2697 23.7305C16.0169 23.7305 15.8802 23.8287 15.7142 23.6911C15.5483 23.5542 15.2663 23.0934 15.6074 23.1422C15.6074 23.1422 16.729 23.4539 16.9982 23.5026C17.444 23.5836 17.4874 23.7599 17.1371 23.7699H17.1364Z" fill="#231F20"/>
</svg>
