<svg width="33px" height="31px" viewBox="0 0 33 31" version="1.1" xmlns="http://www.w3.org/2000/svg" xmlns:xlink="http://www.w3.org/1999/xlink">
    <g id="[Sprint-9]-Result" stroke="none" stroke-width="1" fill="none" fill-rule="evenodd">
        <g id="􀋂-copy" transform="translate(0.988976, 0.178711)" fill="#717171" fill-rule="nonzero">
            <path d="M6.12235248,30.2636719 C6.62039936,30.6298828 7.2209853,30.5273438 7.98270405,29.9707031 L15.9661025,24.1259766 L23.9495009,29.9707031 C24.6965712,30.5273438 25.3118056,30.6298828 25.795204,30.2636719 C26.2932509,29.8974609 26.4104384,29.296875 26.1028212,28.4033203 L22.982704,19.0283203 L31.0246962,13.2421875 C31.786415,12.7001953 32.0500869,12.1435547 31.8596572,11.5576172 C31.6692275,10.9863281 31.1272353,10.6933594 30.1897353,10.6933594 L20.3166884,10.7519531 L17.2991103,1.33300781 C17.0061415,0.424804688 16.5666884,0 15.9661025,0 C15.3508681,0 14.9260634,0.424804688 14.6330947,1.33300781 L11.6155165,10.7519531 L1.74246967,10.6933594 C0.790321234,10.6933594 0.248329047,10.9863281 0.0578993592,11.5576172 C-0.132530328,12.1435547 0.145789984,12.7001953 0.907508734,13.2421875 L8.93485248,19.0283203 L5.82938373,28.4033203 C5.52176655,29.296875 5.63895405,29.8974609 6.12235248,30.2636719 Z M7.6897353,28.1103516 C7.66043842,28.0664062 7.67508686,28.0517578 7.70438373,27.9492188 L10.7219619,19.0869141 C10.8830947,18.6035156 10.7805556,18.1933594 10.3411025,17.9003906 L2.69461811,12.5244141 C2.60672748,12.4658203 2.56278217,12.4365234 2.59207905,12.3779297 C2.60672748,12.3339844 2.6506728,12.3339844 2.75321186,12.3339844 L12.1135634,12.4511719 C12.6262587,12.4658203 12.9631728,12.2460938 13.1243056,11.7333984 L15.8635634,2.79785156 C15.8928603,2.6953125 15.9221572,2.65136719 15.9661025,2.65136719 C16.0100478,2.65136719 16.0393447,2.6953125 16.0686415,2.79785156 L18.8078994,11.7333984 C18.9690322,12.2460938 19.3059462,12.4658203 19.8186415,12.4511719 L29.1789931,12.3339844 C29.2815322,12.3339844 29.3254775,12.3339844 29.3401259,12.3779297 C29.3547744,12.4365234 29.3254775,12.4658203 29.2375869,12.5244141 L21.5911025,17.9003906 C21.1516494,18.1933594 21.0344619,18.6035156 21.2102431,19.0869141 L24.2278212,27.9492188 C24.2571181,28.0517578 24.2717665,28.0664062 24.2278212,28.1103516 C24.1985244,28.1542969 24.154579,28.125 24.0666884,28.0664062 L16.5959853,22.4414062 C16.185829,22.1337891 15.7317275,22.1337891 15.3362197,22.4414062 L7.86551655,28.0664062 C7.77762592,28.125 7.73368061,28.1542969 7.6897353,28.1103516 Z" id="Shape"></path>
        </g>
    </g>
</svg>