<svg width="33px" height="31px" viewBox="0 0 33 31" version="1.1" xmlns="http://www.w3.org/2000/svg" xmlns:xlink="http://www.w3.org/1999/xlink">
    <g id="[Sprint-9]-Result" stroke="none" stroke-width="1" fill="none" fill-rule="evenodd">
        <g id="􀋃-copy-4" transform="translate(0.988976, 0.178711)" fill="#FEA621" fill-rule="nonzero">
            <path d="M6.12235248,30.2636719 C6.62039936,30.6298828 7.2209853,30.5273438 7.98270405,29.9707031 L15.9661025,24.1259766 L23.9495009,29.9707031 C24.6965712,30.5273438 25.3118056,30.6298828 25.795204,30.2636719 C26.2932509,29.8974609 26.4104384,29.296875 26.1028212,28.4033203 L22.982704,19.0283203 L31.0246962,13.2421875 C31.786415,12.7001953 32.0500869,12.1435547 31.8596572,11.5576172 C31.6692275,10.9863281 31.1272353,10.6933594 30.1897353,10.6933594 L20.3166884,10.7519531 L17.2991103,1.33300781 C17.0061415,0.424804688 16.5666884,0 15.9661025,0 C15.3508681,0 14.9260634,0.424804688 14.6330947,1.33300781 L11.6155165,10.7519531 L1.74246967,10.6933594 C0.790321234,10.6933594 0.248329047,10.9863281 0.0578993592,11.5576172 C-0.132530328,12.1435547 0.145789984,12.7001953 0.907508734,13.2421875 L8.93485248,19.0283203 L5.82938373,28.4033203 C5.52176655,29.296875 5.63895405,29.8974609 6.12235248,30.2636719 Z" id="Path"></path>
        </g>
    </g>
</svg>