<svg width="24" height="24" viewBox="0 0 24 24" fill="none" xmlns="http://www.w3.org/2000/svg">
<g clip-path="url(#clip0_12_1529)">
<path d="M22.3293 13.3813C21.6298 13.3813 21.0114 13.832 20.7957 14.4976C19.6294 18.1004 16.2477 20.7145 12.2612 20.7145C7.31215 20.7145 3.28557 16.6875 3.28557 11.738C3.28557 7.76791 5.87799 4.39705 9.45867 3.21753C10.1501 2.98973 10.6185 2.34329 10.6185 1.61452C10.6185 1.09831 10.3715 0.613043 9.95437 0.30949C9.53725 0.00547315 8.99978 -0.0803218 8.50893 0.0777215C3.57836 1.66562 4.57764e-05 6.28699 4.57764e-05 11.7381C4.57764e-05 18.4995 5.5002 24 12.2612 24C17.6906 24 22.2963 20.4498 23.9015 15.5506C24.0666 15.0468 23.98 14.4945 23.6688 14.0651C23.3583 13.6359 22.8603 13.3813 22.3293 13.3813Z" fill="#00A54F"/>
<path d="M15.0189 3.20317C17.7444 4.08551 19.9012 6.23752 20.79 8.96021C21.0114 9.638 21.6426 10.0957 22.3558 10.0957H22.3896C22.9045 10.0957 23.3883 9.84947 23.6914 9.43354C23.9939 9.01764 24.0804 8.48139 23.9225 7.99135C22.7202 4.25271 19.7692 1.29568 16.0337 0.08455C15.5387 -0.0758144 14.9957 0.0103604 14.5747 0.316319C14.1536 0.622699 13.9041 1.11206 13.9041 1.63291V1.66865C13.9039 2.36734 14.3546 2.98778 15.0189 3.20317Z" fill="#00A54F"/>
</g>
<defs>
<clipPath id="clip0_12_1529">
<rect width="24" height="24" fill="white"/>
</clipPath>
</defs>
</svg>
