<svg width="56" height="56" viewBox="0 0 56 56" fill="none" xmlns="http://www.w3.org/2000/svg">
<rect width="56" height="56" rx="28" fill="#CAF0DB"/>
<path d="M29.3125 15.1621H12.25L10.9375 26.9746H30.6668L29.3125 15.1621Z" fill="#F49807"/>
<path d="M29.3125 15.1621H13.5625V19.0996C13.5625 20.8401 14.2539 22.5093 15.4846 23.74C16.7153 24.9707 18.3845 25.6621 20.125 25.6621H30.5164L29.3125 15.1621Z" fill="#F9B708"/>
<path d="M37.9518 22.9291L41.125 19.7559L35.875 14.5059L29.92 20.4608L30.4922 25.4512L37.9518 22.9291Z" fill="#D61316"/>
<path d="M26.0312 19.7559C25.8572 19.7559 25.6903 19.6867 25.5672 19.5636C25.4441 19.4406 25.375 19.2737 25.375 19.0996V13.8496C25.375 12.6313 24.891 11.4628 24.0295 10.6013C23.168 9.73984 21.9996 9.25586 20.7812 9.25586C19.5629 9.25586 18.3945 9.73984 17.533 10.6013C16.6715 11.4628 16.1875 12.6313 16.1875 13.8496V19.0996C16.1875 19.2737 16.1184 19.4406 15.9953 19.5636C15.8722 19.6867 15.7053 19.7559 15.5312 19.7559C15.3572 19.7559 15.1903 19.6867 15.0672 19.5636C14.9441 19.4406 14.875 19.2737 14.875 19.0996V13.8496C14.875 12.2832 15.4973 10.7809 16.6049 9.67326C17.7125 8.56562 19.2148 7.94336 20.7812 7.94336C22.3477 7.94336 23.85 8.56562 24.9576 9.67326C26.0652 10.7809 26.6875 12.2832 26.6875 13.8496V19.0996C26.6875 19.2737 26.6184 19.4406 26.4953 19.5636C26.3722 19.6867 26.2053 19.7559 26.0312 19.7559Z" fill="#F49807"/>
<path d="M31.6094 18.7715L36.319 23.4811L37.9518 22.9291L38.5 22.3809L33.25 17.1309L31.6094 18.7715Z" fill="#E84F2F"/>
<path d="M31.2475 8.5658L31.0946 9.17758C30.9403 9.79456 30.6329 10.3626 30.2008 10.8293C29.7687 11.2959 29.2259 11.6459 28.6226 11.847C29.2259 12.0482 29.7688 12.3982 30.2009 12.8649C30.633 13.3315 30.9404 13.8996 31.0947 14.5166L31.2476 15.1283L31.4005 14.5166C31.5548 13.8996 31.8622 13.3315 32.2943 12.8649C32.7264 12.3982 33.2692 12.0482 33.8726 11.847C33.2692 11.646 32.7264 11.2959 32.2943 10.8293C31.8622 10.3627 31.5548 9.79456 31.4005 9.17758L31.2475 8.5658Z" fill="#F9B708"/>
<path d="M31.9312 10.3606C31.4672 11.0742 30.7756 11.6099 29.9688 11.8809C30.7629 12.1473 31.4458 12.6702 31.91 13.3675C32.374 12.6539 33.0656 12.1181 33.8725 11.8471C33.0783 11.5807 32.3954 11.0578 31.9312 10.3606Z" fill="#FDC901"/>
<path d="M45.7188 26.9746H10.2812C9.19394 26.9746 8.3125 27.856 8.3125 28.9434C8.3125 30.0307 9.19394 30.9121 10.2812 30.9121H45.7188C46.8061 30.9121 47.6875 30.0307 47.6875 28.9434C47.6875 27.856 46.8061 26.9746 45.7188 26.9746Z" fill="#97C01F"/>
<path d="M45.7188 30.9121H10.2813C10.2769 30.9121 10.2731 30.9109 10.2686 30.9108L12.4782 45.1925C12.5974 45.9671 12.99 46.6735 13.5848 47.1838C14.1797 47.6941 14.9376 47.9746 15.7213 47.9746H40.2787C41.0625 47.9746 41.8204 47.6941 42.4152 47.1837C43.0101 46.6734 43.4026 45.967 43.5218 45.1923L45.7298 30.9106C45.7261 30.9111 45.7225 30.9121 45.7188 30.9121Z" fill="#0DA039"/>
<path d="M45.7187 30.9121H12.4293L14.4358 43.8812C14.555 44.6559 14.9475 45.3623 15.5424 45.8727C16.1373 46.383 16.8952 46.6636 17.679 46.6636H42.2364C42.4773 46.6609 42.7171 46.6316 42.9516 46.576C43.2466 46.1654 43.4418 45.6917 43.5218 45.1924L45.7298 30.9108C45.726 30.911 45.7225 30.9121 45.7187 30.9121Z" fill="#0BD447"/>
<path d="M45.7188 26.9746H10.2812C10.0897 26.9773 9.89955 27.0084 9.71704 27.0666C9.65875 27.2492 9.62773 27.4393 9.625 27.6309C9.625 28.153 9.83242 28.6538 10.2016 29.023C10.5708 29.3922 11.0716 29.5996 11.5938 29.5996H47.0312C47.2228 29.5969 47.4129 29.5659 47.5955 29.5076C47.6538 29.3251 47.6848 29.1349 47.6875 28.9434C47.6875 28.4212 47.4801 27.9205 47.1109 27.5512C46.7417 27.182 46.2409 26.9746 45.7188 26.9746Z" fill="#C9D205"/>
<path d="M16.8438 43.3809C16.8438 44.1057 17.4314 44.6934 18.1562 44.6934C18.8811 44.6934 19.4688 44.1057 19.4688 43.3809V35.5059C19.4688 34.781 18.8811 34.1934 18.1562 34.1934C17.4314 34.1934 16.8438 34.781 16.8438 35.5059V43.3809Z" fill="#97C01F"/>
<path d="M19.4688 35.5058C19.4682 35.2764 19.4073 35.0511 19.2921 34.8527C19.1769 34.6542 19.0115 34.4896 18.8125 34.3754C18.6135 34.4896 18.4481 34.6542 18.3329 34.8527C18.2177 35.0511 18.1568 35.2764 18.1562 35.5058V43.3808C18.1568 43.6103 18.2177 43.8356 18.3329 44.034C18.4481 44.2324 18.6135 44.3971 18.8125 44.5113C19.0115 44.3971 19.1769 44.2324 19.2921 44.034C19.4073 43.8356 19.4682 43.6103 19.4688 43.3808V35.5058Z" fill="#C9D205"/>
<path d="M29.9688 43.3809C29.9688 44.1057 30.5564 44.6934 31.2812 44.6934C32.0061 44.6934 32.5938 44.1057 32.5938 43.3809V35.5059C32.5938 34.781 32.0061 34.1934 31.2812 34.1934C30.5564 34.1934 29.9688 34.781 29.9688 35.5059V43.3809Z" fill="#97C01F"/>
<path d="M32.5938 35.5058C32.5932 35.2764 32.5323 35.0511 32.4171 34.8527C32.3019 34.6542 32.1365 34.4896 31.9375 34.3754C31.7385 34.4896 31.5731 34.6542 31.4579 34.8527C31.3427 35.0511 31.2818 35.2764 31.2812 35.5058V43.3808C31.2818 43.6103 31.3427 43.8356 31.4579 44.034C31.5731 44.2324 31.7385 44.3971 31.9375 44.5113C32.1365 44.3971 32.3019 44.2324 32.4171 44.034C32.5323 43.8356 32.5932 43.6103 32.5938 43.3808V35.5058Z" fill="#C9D205"/>
<path d="M36.5312 43.3809C36.5312 44.1057 37.1189 44.6934 37.8438 44.6934C38.5686 44.6934 39.1562 44.1057 39.1562 43.3809V35.5059C39.1562 34.781 38.5686 34.1934 37.8438 34.1934C37.1189 34.1934 36.5312 34.781 36.5312 35.5059V43.3809Z" fill="#97C01F"/>
<path d="M39.1562 35.5058C39.1557 35.2764 39.0948 35.0511 38.9796 34.8527C38.8644 34.6542 38.699 34.4896 38.5 34.3754C38.301 34.4896 38.1356 34.6542 38.0204 34.8527C37.9052 35.0511 37.8443 35.2764 37.8438 35.5058V43.3808C37.8443 43.6103 37.9052 43.8356 38.0204 44.034C38.1356 44.2324 38.301 44.3971 38.5 44.5113C38.699 44.3971 38.8644 44.2324 38.9796 44.034C39.0948 43.8356 39.1557 43.6103 39.1562 43.3808V35.5058Z" fill="#C9D205"/>
<path d="M22.7427 32.2278L46.3585 24.2478C47.3882 23.8999 47.9408 22.7831 47.5929 21.7534C47.245 20.7237 46.1282 20.171 45.0985 20.519L21.4827 28.499C20.453 28.8469 19.9003 29.9637 20.2483 30.9934C20.5962 32.0231 21.713 32.5757 22.7427 32.2278Z" fill="#0DA039"/>
<path d="M45.0877 20.5164L21.4639 28.5037C21.1489 28.6106 20.8663 28.7958 20.6425 29.0419C20.4187 29.2879 20.2612 29.5869 20.1847 29.9106C20.4422 30.1259 20.7505 30.2715 21.0804 30.3336C21.4102 30.3956 21.7504 30.372 22.0685 30.265L45.6923 22.2777C46.0073 22.1708 46.2899 21.9856 46.5137 21.7395C46.7375 21.4934 46.895 21.1944 46.9715 20.8707C46.714 20.6554 46.4057 20.5098 46.0758 20.4478C45.746 20.3857 45.4058 20.4093 45.0877 20.5164Z" fill="#0BD447"/>
<path d="M23.4062 43.3809C23.4062 44.1057 23.9939 44.6934 24.7188 44.6934C25.4436 44.6934 26.0312 44.1057 26.0312 43.3809V35.5059C26.0312 34.781 25.4436 34.1934 24.7188 34.1934C23.9939 34.1934 23.4062 34.781 23.4062 35.5059V43.3809Z" fill="#97C01F"/>
<path d="M26.0312 35.5058C26.0307 35.2764 25.9698 35.0511 25.8546 34.8527C25.7394 34.6542 25.574 34.4896 25.375 34.3754C25.176 34.4896 25.0106 34.6542 24.8954 34.8527C24.7802 35.0511 24.7193 35.2764 24.7188 35.5058V43.3808C24.7193 43.6103 24.7802 43.8356 24.8954 44.034C25.0106 44.2324 25.176 44.3971 25.375 44.5113C25.574 44.3971 25.7394 44.2324 25.8546 44.034C25.9698 43.8356 26.0307 43.6103 26.0312 43.3808V35.5058Z" fill="#C9D205"/>
</svg>
