<svg width="56" height="56" viewBox="0 0 56 56" fill="none" xmlns="http://www.w3.org/2000/svg">
<rect width="56" height="56" rx="28" fill="#CAF0DB"/>
<g clip-path="url(#clip0_1169_1790)">
<path d="M49 28C49 33.226 47.091 38.0061 43.9324 41.6811C40.0811 46.162 34.372 47.8498 28 47.8498C26.244 47.8498 24.9649 47.837 23.3347 47.431C23.1287 47.3797 22.4975 48.2729 22.294 48.2155C17.496 46.864 13.3944 43.8502 10.6503 39.8352C10.3903 39.4548 11.3366 39.102 11.1015 38.7043C9.2542 35.5778 8.19904 31.8944 8.19904 28C8.19904 22.8567 9.82104 18.3115 12.8905 14.6603C13.1527 14.3485 12.4517 13.8783 12.7313 13.5824C16.5598 9.52927 21.9846 7 28 7C39.598 7 49 16.402 49 28Z" fill="#4BCD5C"/>
<path d="M46.1127 25.9797V38.6334C42.4631 44.8366 35.7177 49 28 49C26.0222 49 24.1083 48.7266 22.294 48.2154V39.8351H10.6503C8.34704 36.4652 7 32.3899 7 28C7 22.7163 8.95128 17.8885 12.1726 14.1976H30.8188V25.9797H46.1127Z" fill="#00C53B"/>
<path d="M22.949 39.6343L22.0095 40.5738C21.8813 40.7019 21.6736 40.7019 21.5454 40.5738L20.6059 39.6343C20.4778 39.5062 20.4778 39.2984 20.6059 39.1702L21.5454 38.2307C21.6736 38.1026 21.8813 38.1026 22.0095 38.2307L22.949 39.1702C23.0771 39.2985 23.0771 39.5062 22.949 39.6343Z" fill="#AFE6AF"/>
<path d="M38.9664 15.3148V35.3007C38.9664 35.7538 38.5992 36.1211 38.1461 36.1211H13.4791C13.026 36.1211 12.6588 35.7538 12.6588 35.3007V15.3148C12.6588 14.8618 13.026 14.4945 13.4791 14.4945H38.1461C38.5992 14.4945 38.9664 14.8618 38.9664 15.3148Z" fill="#FFF5F5"/>
<path d="M13.8285 36.1211H11.545C11.3001 36.1211 11.1016 35.9225 11.1016 35.6777V15.3694C11.1016 15.1245 11.3001 14.9259 11.545 14.9259H13.8286C13.5837 14.9259 13.3852 15.1244 13.3852 15.3694V35.6777C13.3851 35.9225 13.5837 36.1211 13.8285 36.1211Z" fill="#E5F2FD"/>
<path d="M38.9664 11.9552V15.3695H13.4141L12.8243 15.0112H12.1606C11.9186 15.0112 11.7224 14.815 11.7224 14.573V13.1744C11.7224 12.2562 12.4668 11.5117 13.385 11.5117H38.523C38.7679 11.5117 38.9664 11.7102 38.9664 11.9552Z" fill="#FF5757"/>
<path d="M13.8285 11.5117C13.5837 11.5117 13.3851 11.7102 13.3851 11.9551V15.3694H11.1016V11.9551C11.1016 11.7102 11.3001 11.5117 11.545 11.5117H13.8285Z" fill="#FF4343"/>
<path d="M36.8184 13.4406C36.8184 13.8936 36.4511 14.2609 35.998 14.2609C35.545 14.2609 35.1777 13.8936 35.1777 13.4406C35.1777 12.9875 35.545 12.6202 35.998 12.6202C36.4511 12.6202 36.8184 12.9876 36.8184 13.4406ZM29.4355 12.6202C28.9825 12.6202 28.6152 12.9875 28.6152 13.4406C28.6152 13.8936 28.9825 14.2609 29.4355 14.2609C29.8886 14.2609 30.2559 13.8936 30.2559 13.4406C30.2559 12.9875 29.8886 12.6202 29.4355 12.6202ZM32.7168 12.6202C32.2637 12.6202 31.8965 12.9875 31.8965 13.4406C31.8965 13.8936 32.2637 14.2609 32.7168 14.2609C33.1699 14.2609 33.5371 13.8936 33.5371 13.4406C33.5371 12.9875 33.1699 12.6202 32.7168 12.6202Z" fill="#FF9A9A"/>
<path d="M33.3487 25.3202C33.3487 25.8968 32.8813 26.3642 32.3047 26.3642C31.7281 26.3642 31.2606 25.8968 31.2606 25.3202C31.2606 24.7436 31.7281 24.2762 32.3047 24.2762C32.8813 24.2762 33.3487 24.7436 33.3487 25.3202ZM32.3046 20.4232C31.728 20.4232 31.2606 20.8906 31.2606 21.4672C31.2606 22.0438 31.728 22.5112 32.3046 22.5112C32.8812 22.5112 33.3486 22.0438 33.3486 21.4672C33.3487 20.8907 32.8812 20.4232 32.3046 20.4232ZM35.7847 20.4232C35.2081 20.4232 34.7407 20.8906 34.7407 21.4672C34.7407 22.0438 35.2081 22.5112 35.7847 22.5112C36.3613 22.5112 36.8288 22.0438 36.8288 21.4672C36.8288 20.8907 36.3613 20.4232 35.7847 20.4232ZM35.7847 24.2762C35.2081 24.2762 34.7407 24.7436 34.7407 25.3202C34.7407 25.8968 35.2081 26.3642 35.7847 26.3642C36.3613 26.3642 36.8288 25.8968 36.8288 25.3202C36.8288 24.7436 36.3613 24.2762 35.7847 24.2762Z" fill="#49B6FC"/>
<path d="M18.3842 30.2173C18.9607 30.2173 19.4282 29.7498 19.4282 29.1732C19.4282 28.5966 18.9607 28.1292 18.3842 28.1292C17.8076 28.1292 17.3401 28.5966 17.3401 29.1732C17.3401 29.7498 17.8076 30.2173 18.3842 30.2173ZM19.4282 21.4673C19.4282 22.0439 18.9608 22.5113 18.3842 22.5113C17.8076 22.5113 17.3402 22.0439 17.3402 21.4673C17.3402 20.8907 17.8076 20.4233 18.3842 20.4233C18.9608 20.4232 19.4282 20.8907 19.4282 21.4673ZM14.9041 20.4232C14.3275 20.4232 13.86 20.8906 13.86 21.4672C13.86 22.0438 14.3275 22.5112 14.9041 22.5112C15.4807 22.5112 15.9481 22.0438 15.9481 21.4672C15.9481 20.8907 15.4807 20.4232 14.9041 20.4232ZM21.8643 20.4232C21.2877 20.4232 20.8203 20.8906 20.8203 21.4672C20.8203 22.0438 21.2877 22.5112 21.8643 22.5112C22.4409 22.5112 22.9083 22.0438 22.9083 21.4672C22.9083 20.8907 22.4409 20.4232 21.8643 20.4232ZM25.3444 20.4232C24.7678 20.4232 24.3004 20.8906 24.3004 21.4672C24.3004 22.0438 24.7678 22.5112 25.3444 22.5112C25.921 22.5112 26.3884 22.0438 26.3884 21.4672C26.3884 20.8907 25.921 20.4232 25.3444 20.4232ZM28.8245 20.4232C28.2479 20.4232 27.7805 20.8906 27.7805 21.4672C27.7805 22.0438 28.2479 22.5112 28.8245 22.5112C29.4011 22.5112 29.8685 22.0438 29.8685 21.4672C29.8685 20.8907 29.4011 20.4232 28.8245 20.4232ZM14.9041 24.2762C14.3275 24.2762 13.86 24.7436 13.86 25.3202C13.86 25.8968 14.3275 26.3642 14.9041 26.3642C15.4807 26.3642 15.9481 25.8968 15.9481 25.3202C15.9481 24.7436 15.4807 24.2762 14.9041 24.2762ZM21.8643 24.2762C21.2877 24.2762 20.8203 24.7436 20.8203 25.3202C20.8203 25.8968 21.2877 26.3642 21.8643 26.3642C22.4409 26.3642 22.9083 25.8968 22.9083 25.3202C22.9083 24.7436 22.4409 24.2762 21.8643 24.2762ZM25.3444 24.2762C24.7678 24.2762 24.3004 24.7436 24.3004 25.3202C24.3004 25.8968 24.7678 26.3642 25.3444 26.3642C25.921 26.3642 26.3884 25.8968 26.3884 25.3202C26.3884 24.7436 25.921 24.2762 25.3444 24.2762ZM28.8245 24.2762C28.2479 24.2762 27.7805 24.7436 27.7805 25.3202C27.7805 25.8968 28.2479 26.3642 28.8245 26.3642C29.4011 26.3642 29.8685 25.8968 29.8685 25.3202C29.8685 24.7436 29.4011 24.2762 28.8245 24.2762ZM14.9041 28.1292C14.3275 28.1292 13.86 28.5966 13.86 29.1732C13.86 29.7498 14.3275 30.2173 14.9041 30.2173C15.4807 30.2173 15.9481 29.7498 15.9481 29.1732C15.9481 28.5966 15.4807 28.1292 14.9041 28.1292ZM21.8643 28.1292C21.2877 28.1292 20.8203 28.5966 20.8203 29.1732C20.8203 29.7498 21.2877 30.2173 21.8643 30.2173C22.4409 30.2173 22.9083 29.7498 22.9083 29.1732C22.9083 28.5966 22.4409 28.1292 21.8643 28.1292ZM25.3444 28.1292C24.7678 28.1292 24.3004 28.5966 24.3004 29.1732C24.3004 29.7498 24.7678 30.2173 25.3444 30.2173C25.921 30.2173 26.3884 29.7498 26.3884 29.1732C26.3884 28.5966 25.921 28.1292 25.3444 28.1292ZM14.9041 31.9822C14.3275 31.9822 13.86 32.4496 13.86 33.0262C13.86 33.6028 14.3275 34.0703 14.9041 34.0703C15.4807 34.0703 15.9481 33.6029 15.9481 33.0263C15.9481 32.4497 15.4807 31.9822 14.9041 31.9822ZM18.3842 31.9822C17.8076 31.9822 17.3401 32.4496 17.3401 33.0262C17.3401 33.6028 17.8076 34.0703 18.3842 34.0703C18.9607 34.0703 19.4282 33.6029 19.4282 33.0263C19.4282 32.4497 18.9607 31.9822 18.3842 31.9822ZM21.8643 31.9822C21.2877 31.9822 20.8203 32.4496 20.8203 33.0262C20.8203 33.6028 21.2877 34.0703 21.8643 34.0703C22.4409 34.0703 22.9083 33.6029 22.9083 33.0263C22.9083 32.4497 22.4409 31.9822 21.8643 31.9822ZM25.3444 31.9822C24.7678 31.9822 24.3004 32.4496 24.3004 33.0262C24.3004 33.6028 24.7678 34.0703 25.3444 34.0703C25.921 34.0703 26.3884 33.6029 26.3884 33.0263C26.3884 32.4497 25.921 31.9822 25.3444 31.9822Z" fill="#93D0FD"/>
<path d="M35.916 18.4844H30.584C30.2442 18.4844 29.9688 18.2089 29.9688 17.8691C29.9688 17.5294 30.2442 17.2539 30.584 17.2539H35.916C36.2558 17.2539 36.5312 17.5294 36.5312 17.8691C36.5312 18.2089 36.2558 18.4844 35.916 18.4844Z" fill="#49B6FC"/>
<path d="M19.4282 25.3203C19.4282 25.8969 18.9608 26.3643 18.3842 26.3643C17.8076 26.3643 17.3402 25.8969 17.3402 25.3203C17.3402 24.7437 17.8076 24.2762 18.3842 24.2762C18.9608 24.2762 19.4282 24.7437 19.4282 25.3203Z" fill="#FFB509"/>
<path d="M46.4637 29.6703V45.5547C46.4637 46.0077 46.0964 46.375 45.6434 46.375H28.2447C27.7916 46.375 27.4244 46.0077 27.4244 45.5547V29.6703C27.4244 29.2172 27.7916 28.85 28.2447 28.85H45.6434C46.0964 28.85 46.4637 29.2172 46.4637 29.6703Z" fill="#FFCD6B"/>
<path d="M28.5942 46.375H26.3106C26.0657 46.375 25.8672 46.1764 25.8672 45.9316V29.7248C25.8672 29.48 26.0657 29.2814 26.3106 29.2814H28.5942C28.3493 29.2814 28.1508 29.4799 28.1508 29.7248V45.9316C28.1508 46.1764 28.3493 46.375 28.5942 46.375Z" fill="#FFC143"/>
<path d="M46.4637 26.3106V29.7249H28.1508L27.7051 29.3666H26.9261C26.6841 29.3666 26.4879 29.1703 26.4879 28.9283V27.5709C26.4879 26.6299 27.2507 25.8672 28.1916 25.8672H46.0202C46.2652 25.8672 46.4637 26.0657 46.4637 26.3106Z" fill="#FFC143"/>
<path d="M28.5942 25.8672C28.3493 25.8672 28.1508 26.0657 28.1508 26.3106V29.7249H25.8672V26.3106C25.8672 26.0657 26.0657 25.8672 26.3106 25.8672H28.5942Z" fill="#FFB509"/>
<path d="M40.9538 36.3302L39.2287 38.0118C39.1063 38.131 39.0506 38.3027 39.0794 38.471L39.4866 40.8454C39.5593 41.2692 39.1145 41.5924 38.7339 41.3923L36.6015 40.2713C36.4504 40.1918 36.2699 40.1918 36.1187 40.2713L33.9863 41.3923C33.6057 41.5924 33.1609 41.2692 33.2336 40.8454L33.6408 38.471C33.6696 38.3027 33.6139 38.131 33.4916 38.0118L31.7664 36.3302C31.4585 36.0301 31.6285 35.5071 32.054 35.4454L34.438 35.0989C34.607 35.0744 34.7531 34.9683 34.8287 34.8151L35.8948 32.6548C36.0851 32.2692 36.635 32.2692 36.8252 32.6548L37.8914 34.8151C37.9669 34.9683 38.113 35.0743 38.282 35.0989L40.6661 35.4454C41.0917 35.5072 41.2617 36.0301 40.9538 36.3302Z" fill="#FFE7BF"/>
<path d="M40.9538 36.3302L39.2287 38.0118C39.1064 38.131 39.0506 38.3027 39.0795 38.471L39.4867 40.8454C39.5593 41.2692 39.1146 41.5924 38.7339 41.3923L37.1348 40.5516C35.903 38.9171 35.0823 36.9554 34.8261 34.8202C34.827 34.8185 34.8279 34.8169 34.8288 34.8151L35.8949 32.6548C36.0852 32.2692 36.6351 32.2692 36.8253 32.6548L37.8915 34.8151C37.967 34.9683 38.1131 35.0743 38.2821 35.099L40.6662 35.4454C41.0918 35.5072 41.2617 36.0301 40.9538 36.3302ZM46.0949 28.9657L47.9424 30.8133C48.0706 30.9414 48.0706 31.1492 47.9424 31.2774L46.0949 33.125C45.9667 33.2531 45.7589 33.2531 45.6308 33.125L43.7832 31.2774C43.6551 31.1492 43.6551 30.9414 43.7832 30.8133L45.6308 28.9657C45.7589 28.8376 45.9667 28.8376 46.0949 28.9657ZM26.0992 44.6121L27.3752 43.336C27.5034 43.2079 27.5034 43.0001 27.3752 42.872L26.0992 41.5959C25.971 41.4678 25.7632 41.4678 25.6351 41.5959L24.359 42.872C24.2309 43.0001 24.2309 43.2079 24.359 43.336L25.6351 44.6121C25.7633 44.7403 25.971 44.7403 26.0992 44.6121Z" fill="#FFF5F5"/>
<path d="M42.9924 24.9765L39.2221 28.7468C38.9818 28.987 38.5923 28.987 38.3521 28.7468C38.1118 28.5065 38.1118 28.1169 38.3521 27.8767L42.1224 24.1063C42.3627 23.8661 42.7522 23.8661 42.9925 24.1063C43.2327 24.3466 43.2327 24.7362 42.9924 24.9765Z" fill="#E5F2FD"/>
<path d="M40.8214 25.4157L38.9413 23.5356C38.7346 23.3289 38.881 22.9755 39.1733 22.9755H41.2231L43.8333 20.3652C44.1537 20.0449 44.6731 20.0449 44.9934 20.3652L45.4931 20.865C45.6575 21.0294 45.663 21.2955 45.5031 21.4642C44.3811 22.6479 43.3523 23.9206 42.4284 25.271C42.0582 25.812 41.285 25.8792 40.8214 25.4157Z" fill="#FF5757"/>
<path d="M45.4889 20.8607L46.7335 22.1055C47.0539 22.4258 47.0539 22.9452 46.7335 23.2655L44.1233 25.8758V27.9256C44.1233 28.2179 43.7698 28.3643 43.5632 28.1576L40.8172 25.4116C42.8197 23.394 43.6365 22.5114 45.4889 20.8607Z" fill="#FF7A7A"/>
</g>
<defs>
<clipPath id="clip0_1169_1790">
<rect width="42" height="42" fill="white" transform="translate(7 7)"/>
</clipPath>
</defs>
</svg>
