<svg width="32" height="32" viewBox="0 0 32 32" fill="none" xmlns="http://www.w3.org/2000/svg">
<path d="M23.2969 3.81108C23.0765 3.62321 22.8179 3.48548 22.539 3.40743C22.2601 3.32939 21.9676 3.31289 21.6816 3.35908L5.08302 6.03633C4.22156 6.1722 3.43716 6.61187 2.87169 7.27582C2.30623 7.93977 1.99703 8.78416 2.00002 9.65626V11.3333C2.00002 11.5101 2.07026 11.6797 2.19529 11.8047C2.32032 11.9298 2.48989 12 2.66671 12H23.3333C23.5101 12 23.6797 11.9298 23.8048 11.8047C23.9298 11.6797 24 11.5101 24 11.3333V5.3337C24.0003 5.0441 23.9375 4.75791 23.8161 4.49498C23.6947 4.23206 23.5175 3.9987 23.2969 3.81108Z" fill="#00B157"/>
<path d="M25.3333 8.66675H4C3.46974 8.66733 2.96137 8.87823 2.58643 9.25317C2.21148 9.62812 2.00058 10.1365 2 10.6667V25.3334C2.00101 26.2171 2.35252 27.0644 2.97742 27.6893C3.60232 28.3142 4.44957 28.6657 5.33331 28.6667H25.3333C26.2171 28.6657 27.0643 28.3142 27.6892 27.6893C28.3141 27.0644 28.6656 26.2171 28.6666 25.3334V12.0001C28.6656 11.1163 28.3141 10.2691 27.6892 9.64417C27.0643 9.01927 26.2171 8.66776 25.3333 8.66675Z" fill="#00CF66"/>
<path d="M25.3333 26.6666H5.33331C4.44956 26.6656 3.6023 26.3141 2.9774 25.6892C2.3525 25.0643 2.00099 24.217 2 23.3333V25.3333C2.00101 26.217 2.35252 27.0642 2.97742 27.6891C3.60232 28.314 4.44957 28.6656 5.33331 28.6666H25.3333C26.2171 28.6656 27.0643 28.314 27.6892 27.6891C28.3141 27.0642 28.6656 26.217 28.6666 25.3333V23.3333C28.6656 24.217 28.3141 25.0643 27.6892 25.6892C27.0643 26.3141 26.2171 26.6656 25.3333 26.6666Z" fill="#00B157"/>
<path d="M20 15.3333C19.1159 15.3333 18.2681 15.6844 17.6429 16.3096C17.0178 16.9347 16.6666 17.7825 16.6666 18.6666C16.6666 19.5507 17.0178 20.3985 17.6429 21.0236C18.2681 21.6487 19.1159 21.9999 20 21.9999H28.6667V15.3333H20Z" fill="#00B157"/>
<path d="M28.6667 14H20C19.1159 14 18.2681 14.3512 17.6429 14.9763C17.0178 15.6014 16.6666 16.4493 16.6666 17.3333C16.6666 18.2174 17.0178 19.0653 17.6429 19.6904C18.2681 20.3155 19.1159 20.6667 20 20.6667H28.6667C29.0202 20.6663 29.3591 20.5257 29.6091 20.2757C29.859 20.0258 29.9996 19.6868 30 19.3333V15.3333C29.9996 14.9798 29.859 14.6409 29.609 14.3909C29.3591 14.141 29.0202 14.0004 28.6667 14Z" fill="#FAC100"/>
<path d="M20 18.6666C20.7364 18.6666 21.3333 18.0697 21.3333 17.3333C21.3333 16.5969 20.7364 16 20 16C19.2636 16 18.6667 16.5969 18.6667 17.3333C18.6667 18.0697 19.2636 18.6666 20 18.6666Z" fill="#EAEFF0"/>
</svg>
